<svg xmlns="http://www.w3.org/2000/svg" viewBox="0 0 169.61 143.25"><defs><style>.cls-1{fill:#cb9833;fill-rule:evenodd;}.cls-2{fill:#fff;}</style></defs><g id="Layer_2" data-name="Layer 2"><g id="Layer_1-2" data-name="Layer 1"><polygon class="cls-1" points="37.63 96.8 59.79 58.41 22.16 58.41 0 96.8 37.63 96.8"/><polygon class="cls-1" points="76.16 49.33 57.37 81.88 94.99 81.88 104.38 65.62 120.67 37.4 92.45 21.11 84.11 16.29 55.89 0 39.59 28.22 67.81 44.51 76.16 49.33"/><path class="cls-2" d="M60.64,99a4.59,4.59,0,0,1-1.92,1.8,6.6,6.6,0,0,1-3.12.68H53.52v5.11H49.31V91.4H55.6a6.8,6.8,0,0,1,3.1.64,4.51,4.51,0,0,1,1.93,1.78,5.36,5.36,0,0,1,.64,2.63A5,5,0,0,1,60.64,99ZM57,96.45c0-1.11-.59-1.66-1.78-1.66H53.52v3.29h1.67C56.38,98.08,57,97.53,57,96.45Z"/><path class="cls-2" d="M62.92,92.76a2,2,0,0,1-.67-1.53,2,2,0,0,1,.67-1.57,2.55,2.55,0,0,1,1.8-.63,2.49,2.49,0,0,1,1.77.63,2,2,0,0,1,.68,1.57,2,2,0,0,1-.68,1.53,2.52,2.52,0,0,1-1.77.61A2.58,2.58,0,0,1,62.92,92.76Zm3.88,1.73v12.05H62.59V94.49Z"/><path class="cls-2" d="M71.06,106.14a4.81,4.81,0,0,1-2-1.5,3.9,3.9,0,0,1-.83-2.16h4.08a1.29,1.29,0,0,0,.54.9,1.84,1.84,0,0,0,1.12.33,1.39,1.39,0,0,0,.81-.22.66.66,0,0,0,.3-.56.69.69,0,0,0-.49-.66,10.37,10.37,0,0,0-1.63-.48,13.27,13.27,0,0,1-2.15-.58,3.51,3.51,0,0,1-1.49-1,2.88,2.88,0,0,1-.64-2,3.4,3.4,0,0,1,.58-1.94A4,4,0,0,1,71,94.86a6.41,6.41,0,0,1,2.72-.52,5.53,5.53,0,0,1,3.71,1.16,4.53,4.53,0,0,1,1.57,3h-3.8a1.38,1.38,0,0,0-.51-.89,1.65,1.65,0,0,0-1.06-.31,1.3,1.3,0,0,0-.78.19.63.63,0,0,0-.27.54.71.71,0,0,0,.49.65,8,8,0,0,0,1.59.46,14.34,14.34,0,0,1,2.18.63,4,4,0,0,1,1.53,1.1,3.44,3.44,0,0,1,0,4,4.08,4.08,0,0,1-1.74,1.32,6.74,6.74,0,0,1-2.65.48A7.23,7.23,0,0,1,71.06,106.14Z"/><path class="cls-2" d="M91.86,95.77a5.47,5.47,0,0,1,1.21,3.75v7H88.86v-6.46a2.39,2.39,0,0,0-.53-1.63,1.87,1.87,0,0,0-1.44-.59,1.9,1.9,0,0,0-1.48.59,2.34,2.34,0,0,0-.54,1.63v6.46H80.66V90.65h4.21v5.56a4,4,0,0,1,1.51-1.32,4.61,4.61,0,0,1,2.2-.51A4.15,4.15,0,0,1,91.86,95.77Z"/><path class="cls-2" d="M97.39,105.94a5.52,5.52,0,0,1-2.24-2.15,6.91,6.91,0,0,1,0-6.55,5.61,5.61,0,0,1,2.25-2.15,7.35,7.35,0,0,1,6.47,0,5.61,5.61,0,0,1,2.25,2.15,6.2,6.2,0,0,1,.83,3.26,6.27,6.27,0,0,1-.83,3.28,5.53,5.53,0,0,1-2.26,2.16,7.37,7.37,0,0,1-6.48,0Zm4.71-3.56a2.72,2.72,0,0,0,.59-1.88,2.68,2.68,0,0,0-.59-1.86,1.91,1.91,0,0,0-1.45-.65,1.84,1.84,0,0,0-1.44.65,2.68,2.68,0,0,0-.58,1.86,2.78,2.78,0,0,0,.56,1.9,1.84,1.84,0,0,0,1.44.64A1.91,1.91,0,0,0,102.1,102.38Z"/><path class="cls-2" d="M119.5,95.77a5.48,5.48,0,0,1,1.22,3.75v7h-4.21v-6.46a2.34,2.34,0,0,0-.54-1.63,1.85,1.85,0,0,0-1.44-.59,1.91,1.91,0,0,0-1.48.59,2.34,2.34,0,0,0-.54,1.63v6.46H108.3V94.49h4.21v1.72A4.12,4.12,0,0,1,114,94.89a4.49,4.49,0,0,1,2.17-.51A4.21,4.21,0,0,1,119.5,95.77Z"/><path class="cls-2" d="M124.89,106.14a4.88,4.88,0,0,1-2-1.5,4,4,0,0,1-.83-2.16h4.08a1.29,1.29,0,0,0,.54.9,1.84,1.84,0,0,0,1.12.33,1.39,1.39,0,0,0,.81-.22.66.66,0,0,0,.3-.56.69.69,0,0,0-.49-.66,10,10,0,0,0-1.63-.48,13.27,13.27,0,0,1-2.15-.58,3.57,3.57,0,0,1-1.49-1,2.88,2.88,0,0,1-.64-2,3.48,3.48,0,0,1,.58-1.94,4,4,0,0,1,1.71-1.38,6.41,6.41,0,0,1,2.72-.52,5.53,5.53,0,0,1,3.71,1.16,4.48,4.48,0,0,1,1.57,3H129a1.41,1.41,0,0,0-.5-.89,1.68,1.68,0,0,0-1.07-.31,1.32,1.32,0,0,0-.78.19.63.63,0,0,0-.27.54.71.71,0,0,0,.49.65,8,8,0,0,0,1.59.46,14,14,0,0,1,2.18.63,4,4,0,0,1,1.53,1.1,3.07,3.07,0,0,1,.65,2.08,3.12,3.12,0,0,1-.61,1.89,4.08,4.08,0,0,1-1.74,1.32,6.71,6.71,0,0,1-2.65.48A7.23,7.23,0,0,1,124.89,106.14Z"/><path class="cls-2" d="M145.94,101.36h-8a2.25,2.25,0,0,0,.55,1.48,1.67,1.67,0,0,0,1.23.48,1.56,1.56,0,0,0,1.51-.95h4.49a5.29,5.29,0,0,1-1.09,2.23,5.57,5.57,0,0,1-2,1.53,6.35,6.35,0,0,1-2.71.56,6.53,6.53,0,0,1-3.16-.75,5.35,5.35,0,0,1-2.17-2.15,7.25,7.25,0,0,1,0-6.56,5.34,5.34,0,0,1,2.15-2.14,7.18,7.18,0,0,1,6.35,0,5.34,5.34,0,0,1,2.15,2.09,6.37,6.37,0,0,1,.77,3.22A7.93,7.93,0,0,1,145.94,101.36Zm-4.23-2a1.49,1.49,0,0,0-.52-1.21,1.92,1.92,0,0,0-1.29-.44,1.86,1.86,0,0,0-1.26.42,2,2,0,0,0-.65,1.23Z"/><path class="cls-2" d="M153.28,95a4.15,4.15,0,0,1,2.17-.6v4.49h-1.19a3.23,3.23,0,0,0-2,.54,2.29,2.29,0,0,0-.66,1.87v5.26h-4.21V94.49h4.21v2.13A5.48,5.48,0,0,1,153.28,95Z"/><path class="cls-2" d="M162.35,102.57l2.26-8.08h4.49L165,106.54h-5.24l-4.15-12.05h4.49Z"/><path class="cls-2" d="M57,115a3,3,0,0,1-1.27,1.21,4.65,4.65,0,0,1-2.17.45H51.73v4.09H49.59V110.11h3.92a4.76,4.76,0,0,1,2.1.42,3,3,0,0,1,1.31,1.18A3.47,3.47,0,0,1,57,115Zm-2.22-.46a1.51,1.51,0,0,0,.43-1.14c0-1-.58-1.55-1.74-1.55H51.73v3.09h1.69A1.83,1.83,0,0,0,54.73,114.54Z"/><path class="cls-2" d="M61.61,112.56a3,3,0,0,1,1.52-.38v2.24h-.57a2.17,2.17,0,0,0-1.51.47,2.2,2.2,0,0,0-.51,1.65v4.21H58.4V112.3h2.14v1.31A3.07,3.07,0,0,1,61.61,112.56Z"/><path class="cls-2" d="M65.66,120.34a4,4,0,0,1-1.54-1.53,4.58,4.58,0,0,1-.55-2.28,4.5,4.5,0,0,1,.57-2.29,4,4,0,0,1,1.56-1.53,4.79,4.79,0,0,1,4.42,0,4,4,0,0,1,1.57,1.53,4.5,4.5,0,0,1,.57,2.29,4.4,4.4,0,0,1-.59,2.28,4.07,4.07,0,0,1-1.58,1.53,4.67,4.67,0,0,1-2.24.55A4.45,4.45,0,0,1,65.66,120.34Zm3.28-1.6a2.08,2.08,0,0,0,.82-.84,2.92,2.92,0,0,0,.3-1.37,2.57,2.57,0,0,0-.63-1.86,2.08,2.08,0,0,0-1.55-.64,2,2,0,0,0-1.53.64,2.61,2.61,0,0,0-.62,1.86,2.58,2.58,0,0,0,.61,1.85,2,2,0,0,0,1.51.65A2.2,2.2,0,0,0,68.94,118.74Z"/><path class="cls-2" d="M76.64,112.55a3.52,3.52,0,0,1,1.65-.38,3.65,3.65,0,0,1,2,.53,3.8,3.8,0,0,1,1.39,1.52,4.84,4.84,0,0,1,.51,2.27,5,5,0,0,1-.51,2.3,4,4,0,0,1-1.39,1.55,3.66,3.66,0,0,1-2,.55,3.37,3.37,0,0,1-1.64-.39,3.5,3.5,0,0,1-1.15-1v5.23H73.37V112.3H75.5v1.22A3.32,3.32,0,0,1,76.64,112.55Zm3,2.63a2.19,2.19,0,0,0-.83-.85,2.23,2.23,0,0,0-1.1-.29,2.11,2.11,0,0,0-1.09.3,2.22,2.22,0,0,0-.83.86,2.81,2.81,0,0,0-.31,1.33,2.77,2.77,0,0,0,.31,1.32,2.22,2.22,0,0,0,.83.86,2.11,2.11,0,0,0,1.09.3,2.14,2.14,0,0,0,1.1-.3,2.39,2.39,0,0,0,.83-.87,2.86,2.86,0,0,0,.31-1.35A2.73,2.73,0,0,0,79.66,115.18Z"/><path class="cls-2" d="M91,117.17H84.86a2.08,2.08,0,0,0,.64,1.43,2,2,0,0,0,1.39.52,1.75,1.75,0,0,0,1.69-1h2.3a3.81,3.81,0,0,1-1.4,2,4.12,4.12,0,0,1-2.55.79,4.38,4.38,0,0,1-2.18-.55,3.77,3.77,0,0,1-1.51-1.53,4.69,4.69,0,0,1-.55-2.28,4.75,4.75,0,0,1,.54-2.31,3.7,3.7,0,0,1,1.49-1.52,4.43,4.43,0,0,1,2.21-.53,4.53,4.53,0,0,1,2.16.51,3.7,3.7,0,0,1,1.48,1.48,4.42,4.42,0,0,1,.52,2.18A5.21,5.21,0,0,1,91,117.17Zm-2.15-1.44a1.71,1.71,0,0,0-.59-1.32,2.11,2.11,0,0,0-1.42-.49,1.92,1.92,0,0,0-1.33.48,2.15,2.15,0,0,0-.67,1.33Z"/><path class="cls-2" d="M95.4,112.56a3,3,0,0,1,1.52-.38v2.24h-.57a1.78,1.78,0,0,0-2,2.12v4.21H92.19V112.3h2.13v1.31A3.19,3.19,0,0,1,95.4,112.56Z"/><path class="cls-2" d="M100.37,114.06v4.08a.8.8,0,0,0,.21.62,1,1,0,0,0,.69.19h1v1.8h-1.34c-1.8,0-2.7-.88-2.7-2.62v-4.07h-1V112.3h1v-2.09h2.15v2.09h1.89v1.76Z"/><path class="cls-2" d="M111.42,112.3l-5.22,12.44h-2.28l1.83-4.21-3.38-8.23h2.39l2.18,5.9,2.21-5.9Z"/><path class="cls-2" d="M124.56,110.11v10.64h-2.13v-4.53h-4.56v4.53h-2.13V110.11h2.13v4.37h4.56v-4.37Z"/><path class="cls-2" d="M134.18,112.3v8.45H132v-1.07a2.72,2.72,0,0,1-1.08.86,3.3,3.3,0,0,1-1.44.31,3.56,3.56,0,0,1-1.75-.41,3,3,0,0,1-1.2-1.24,4.06,4.06,0,0,1-.43-1.94v-5h2.13V117a2.18,2.18,0,0,0,.51,1.55,1.77,1.77,0,0,0,1.37.54,1.82,1.82,0,0,0,1.39-.54A2.22,2.22,0,0,0,132,117V112.3Z"/><path class="cls-2" d="M139.09,112.55a3.47,3.47,0,0,1,1.66-.38,3.67,3.67,0,0,1,2,.53,3.77,3.77,0,0,1,1.38,1.52,4.84,4.84,0,0,1,.51,2.27,5,5,0,0,1-.51,2.3,3.93,3.93,0,0,1-1.38,1.55,3.69,3.69,0,0,1-2,.55,3.53,3.53,0,0,1-1.66-.38,3.15,3.15,0,0,1-1.13-1v1.21h-2.14V109.47H138v4.07A3,3,0,0,1,139.09,112.55Zm3,2.63a2.17,2.17,0,0,0-.82-.85,2.24,2.24,0,0,0-1.11-.29,2.13,2.13,0,0,0-1.09.3,2.2,2.2,0,0,0-.82.86,2.7,2.7,0,0,0-.31,1.33,2.66,2.66,0,0,0,.31,1.32,2.2,2.2,0,0,0,.82.86,2.17,2.17,0,0,0,2.2,0,2.37,2.37,0,0,0,.82-.87,2.75,2.75,0,0,0,.31-1.35A2.62,2.62,0,0,0,142.11,115.18Z"/><path class="cls-2" d="M44,143a.89.89,0,0,1-.25-.62.85.85,0,0,1,.87-.87.82.82,0,0,1,.61.25.81.81,0,0,1,.25.62.84.84,0,0,1-.25.62.86.86,0,0,1-.61.25A.89.89,0,0,1,44,143Z"/><path class="cls-2" d="M48.29,143a.84.84,0,0,1-.25-.62.81.81,0,0,1,.25-.62.88.88,0,0,1,1.23,0,.85.85,0,0,1,.25.62.89.89,0,0,1-.25.62.88.88,0,0,1-1.23,0Z"/><path class="cls-2" d="M52.59,143a.84.84,0,0,1-.25-.62.85.85,0,0,1,.87-.87.8.8,0,0,1,.6.25.81.81,0,0,1,.25.62.86.86,0,0,1-1.47.62Z"/><path class="cls-2" d="M65.76,136.58l-2,6.56H62.3L61,138.3l-1.32,4.84H58.23l-2-6.56h1.38l1.37,5.28,1.39-5.28h1.42l1.33,5.25,1.36-5.25Z"/><path class="cls-2" d="M72.93,136.8a2.24,2.24,0,0,1,.93.95,3.13,3.13,0,0,1,.34,1.52v3.87H72.86v-3.66a1.91,1.91,0,0,0-.44-1.35,1.57,1.57,0,0,0-1.21-.47,1.55,1.55,0,0,0-1.2.47,1.87,1.87,0,0,0-.45,1.35v3.66H68.2v-8.8h1.36v3a2.27,2.27,0,0,1,.87-.65,3,3,0,0,1,1.16-.22A2.68,2.68,0,0,1,72.93,136.8Z"/><path class="cls-2" d="M83.32,140.37h-5a1.81,1.81,0,0,0,1.86,1.74,1.59,1.59,0,0,0,1.55-.92h1.47a3,3,0,0,1-1.08,1.48,3.15,3.15,0,0,1-1.94.58,3.38,3.38,0,0,1-1.68-.42,3.11,3.11,0,0,1-1.17-1.19,3.69,3.69,0,0,1-.42-1.78,3.74,3.74,0,0,1,.41-1.78,3,3,0,0,1,1.16-1.19,3.48,3.48,0,0,1,1.7-.41,3.37,3.37,0,0,1,1.66.4A2.88,2.88,0,0,1,83,138a3.42,3.42,0,0,1,.4,1.68A4.55,4.55,0,0,1,83.32,140.37ZM82,139.27a1.54,1.54,0,0,0-.54-1.2,1.91,1.91,0,0,0-1.29-.45,1.76,1.76,0,0,0-1.21.45,1.84,1.84,0,0,0-.59,1.2Z"/><path class="cls-2" d="M88.27,136.76a2.32,2.32,0,0,1,1.18-.28v1.4H89.1a1.67,1.67,0,0,0-1.21.41,1.93,1.93,0,0,0-.41,1.4v3.45H86.13v-6.56h1.35v1A2,2,0,0,1,88.27,136.76Z"/><path class="cls-2" d="M98.09,140.37h-5a1.81,1.81,0,0,0,1.86,1.74,1.59,1.59,0,0,0,1.55-.92H98a3,3,0,0,1-1.08,1.48,3.15,3.15,0,0,1-1.94.58,3.38,3.38,0,0,1-1.68-.42,3,3,0,0,1-1.17-1.19,3.69,3.69,0,0,1-.42-1.78,3.74,3.74,0,0,1,.41-1.78,3,3,0,0,1,1.16-1.19,3.48,3.48,0,0,1,1.7-.41,3.37,3.37,0,0,1,1.66.4A2.88,2.88,0,0,1,97.73,138a3.42,3.42,0,0,1,.4,1.68A4.55,4.55,0,0,1,98.09,140.37Zm-1.37-1.1a1.54,1.54,0,0,0-.54-1.2,1.92,1.92,0,0,0-1.3-.45,1.76,1.76,0,0,0-1.2.45,1.84,1.84,0,0,0-.59,1.2Z"/><path class="cls-2" d="M110,137.25a2.24,2.24,0,0,0-.9-.93,2.69,2.69,0,0,0-1.32-.32,2.83,2.83,0,0,0-1.46.37,2.69,2.69,0,0,0-1,1,3.28,3.28,0,0,0-.36,1.57,3.38,3.38,0,0,0,.36,1.58,2.69,2.69,0,0,0,1,1.05,2.93,2.93,0,0,0,1.46.37,2.61,2.61,0,0,0,1.8-.62,2.66,2.66,0,0,0,.84-1.68h-3.1v-1.08h4.56v1.06a4.09,4.09,0,0,1-4.1,3.54,4.32,4.32,0,0,1-2.13-.54,4.08,4.08,0,0,1-1.53-1.5,4.52,4.52,0,0,1,0-4.36,4,4,0,0,1,1.54-1.5,4.19,4.19,0,0,1,2.12-.55,4.32,4.32,0,0,1,2.35.65,3.74,3.74,0,0,1,1.5,1.84Z"/><path class="cls-2" d="M115.78,142.83a3,3,0,0,1-1.17-1.19,3.58,3.58,0,0,1-.43-1.78,3.48,3.48,0,0,1,.44-1.78,3.05,3.05,0,0,1,1.2-1.19,3.59,3.59,0,0,1,1.7-.41,3.53,3.53,0,0,1,1.7.41,3.14,3.14,0,0,1,1.21,1.19,3.59,3.59,0,0,1,.44,1.78,3.46,3.46,0,0,1-.46,1.77,3.09,3.09,0,0,1-1.23,1.2,3.56,3.56,0,0,1-1.72.42A3.38,3.38,0,0,1,115.78,142.83Zm2.66-1a1.93,1.93,0,0,0,.75-.75,2.41,2.41,0,0,0,.28-1.21,2.49,2.49,0,0,0-.27-1.21,1.74,1.74,0,0,0-.73-.74,2,2,0,0,0-1.94,0,1.7,1.7,0,0,0-.71.74,2.61,2.61,0,0,0-.26,1.21,2.29,2.29,0,0,0,.54,1.63,1.78,1.78,0,0,0,1.36.58A2,2,0,0,0,118.44,141.82Z"/><path class="cls-2" d="M123.6,138.08a3,3,0,0,1,1.12-1.18,3,3,0,0,1,1.57-.42,3,3,0,0,1,1.27.28,2.44,2.44,0,0,1,1,.74v-3.16h1.37v8.8h-1.37v-1a2.56,2.56,0,0,1-.92.79,2.8,2.8,0,0,1-1.35.31,3,3,0,0,1-2.68-1.65,3.67,3.67,0,0,1-.41-1.77A3.59,3.59,0,0,1,123.6,138.08Zm4.67.6a1.91,1.91,0,0,0-.73-.76,1.83,1.83,0,0,0-1-.26,1.9,1.9,0,0,0-1.71,1,2.3,2.3,0,0,0-.28,1.17,2.38,2.38,0,0,0,.28,1.19,1.93,1.93,0,0,0,.74.78,1.84,1.84,0,0,0,1,.27,1.9,1.9,0,0,0,1.7-1,2.37,2.37,0,0,0,.28-1.18A2.34,2.34,0,0,0,128.27,138.68Z"/><path class="cls-2" d="M138.38,136.76a2.3,2.3,0,0,1,1.17-.28v1.4h-.34a1.64,1.64,0,0,0-1.21.41,1.89,1.89,0,0,0-.41,1.4v3.45h-1.36v-6.56h1.36v1A2,2,0,0,1,138.38,136.76Z"/><path class="cls-2" d="M148.17,136.58v6.56h-1.36v-.77a2.19,2.19,0,0,1-.84.64,2.71,2.71,0,0,1-1.1.23,3,3,0,0,1-1.39-.32,2.4,2.4,0,0,1-1-1,3.1,3.1,0,0,1-.35-1.52v-3.86h1.34v3.66a1.91,1.91,0,0,0,.44,1.35,1.6,1.6,0,0,0,1.21.47,1.58,1.58,0,0,0,1.2-.47,1.87,1.87,0,0,0,.45-1.35v-3.66Z"/><path class="cls-2" d="M152.74,134.34v8.8h-1.36v-8.8Z"/><path class="cls-2" d="M161.91,140.37h-5a1.83,1.83,0,0,0,1.87,1.74,1.59,1.59,0,0,0,1.55-.92h1.46a3,3,0,0,1-1.07,1.48,3.15,3.15,0,0,1-1.94.58,3.33,3.33,0,0,1-1.68-.42,3,3,0,0,1-1.17-1.19,3.69,3.69,0,0,1-.42-1.78,3.74,3.74,0,0,1,.41-1.78,2.93,2.93,0,0,1,1.15-1.19,3.54,3.54,0,0,1,1.71-.41,3.37,3.37,0,0,1,1.66.4,2.88,2.88,0,0,1,1.13,1.14,3.92,3.92,0,0,1,.35,2.35Zm-1.36-1.1a1.54,1.54,0,0,0-.54-1.2,1.92,1.92,0,0,0-1.3-.45,1.72,1.72,0,0,0-1.2.45,1.84,1.84,0,0,0-.59,1.2Z"/><path class="cls-2" d="M165.72,143a2.41,2.41,0,0,1-1-.76,1.84,1.84,0,0,1-.38-1.08h1.4a1,1,0,0,0,.4.7,1.47,1.47,0,0,0,.91.28,1.6,1.6,0,0,0,.89-.22.67.67,0,0,0,.31-.57.6.6,0,0,0-.35-.55,6.07,6.07,0,0,0-1.11-.39,8.94,8.94,0,0,1-1.2-.39,2.2,2.2,0,0,1-.81-.58,1.59,1.59,0,0,1-.34-1,1.66,1.66,0,0,1,.31-1,2,2,0,0,1,.89-.68,3.25,3.25,0,0,1,1.33-.25,2.79,2.79,0,0,1,1.8.56,2,2,0,0,1,.73,1.54h-1.36a1,1,0,0,0-.35-.7,1.39,1.39,0,0,0-.87-.26,1.44,1.44,0,0,0-.82.2.65.65,0,0,0-.29.54.58.58,0,0,0,.19.44,1.37,1.37,0,0,0,.47.28c.18.07.45.15.8.25a9.57,9.57,0,0,1,1.18.39,2.13,2.13,0,0,1,.79.58,1.48,1.48,0,0,1,.34,1,1.67,1.67,0,0,1-.31,1,2,2,0,0,1-.87.69,3.6,3.6,0,0,1-2.71,0Z"/></g></g></svg>