<svg xmlns="http://www.w3.org/2000/svg" viewBox="0 0 25.55 25.55"><defs><style>.cls-1{fill:#cb9833;}</style></defs><g id="Layer_2" data-name="Layer 2"><g id="Layer_1-2" data-name="Layer 1"><path class="cls-1" d="M25.55,11.09c-.53-.29-2.69-.36-2.86-1s1.68-1.72,2-2.24c-.59-.16-2.48.72-2.81.15s1-2.48,1.13-3.07c-.61,0-2.42,1.12-2.89.65s.51-2.42.51-3C20,2.72,18.57,4.26,18,3.93s-.14-2.47-.29-3.06c-.53.31-1.58,2.17-2.22,2S14.76.53,14.46,0c-.43.44-1,2.5-1.68,2.5S11.52.44,11.09,0c-.29.53-.3,2.67-.93,2.84S8.37,1.18,7.85.87c-.16.59.31,2.71-.26,3S5.52,2.72,4.93,2.55c0,.61,1.07,2.48.6,2.94s-2.37-.55-3-.56c.17.59,1.62,1.93,1.29,2.5s-2.38.26-3,.42c.31.52,2.19,1.49,2,2.13S.53,10.8,0,11.09c.44.43,2.5.88,2.5,1.54S.44,14,0,14.46c.53.3,2.68.33,2.85,1s-1.67,1.75-2,2.28c.59.15,2.66-.4,3,.18S2.72,20,2.55,20.62c.61,0,2.5-1,3-.57S4.94,22.39,4.93,23c.59-.16,2.18-1.63,2.75-1.3s0,2.39.17,3c.52-.31,1.62-2.15,2.26-2s.69,2.32,1,2.85c.43-.43,1-2.5,1.69-2.5s1.25,2.07,1.68,2.5c.3-.53.46-2.71,1.09-2.88s1.63,1.7,2.16,2c.15-.59-.19-2.78.39-3.11S20,22.84,20.62,23c0-.61-.95-2.59-.48-3.06s2.25.68,2.86.68c-.16-.59-1.62-2.21-1.29-2.78s2.38,0,3-.13c-.31-.53-2.12-1.73-1.95-2.37s2.29-.58,2.82-.88c-.43-.43-2.5-1-2.5-1.68S25.12,11.52,25.55,11.09ZM12.78,21.82a9,9,0,1,1,9-9A9.06,9.06,0,0,1,12.78,21.82Z"/><path class="cls-1" d="M12.78,4.66a8.12,8.12,0,1,0,8.11,8.12A8.11,8.11,0,0,0,12.78,4.66ZM9.58,18l3.2-5.39H8.94l4-5.1h2.19L12.41,11h4.2Z"/></g></g></svg>