<svg xmlns="http://www.w3.org/2000/svg" viewBox="0 0 28.44 26.46"><defs><style>.cls-1{fill:#cb9833;}</style></defs><g id="Layer_2" data-name="Layer 2"><g id="Layer_1-2" data-name="Layer 1"><path class="cls-1" d="M21.43,26.46l-1.1-5.66S20.48,19,21.66,19c3.88,0,3.91-2,4.14-4.07.2-1.76.72-6.14.72-6.14s.24-1-.48-1.1-1.11,2.07-1.54,3.67c-.68,2.5-2,4.57-2.83,4.07-.58-.35.43-1.45.87-2.13s.94-1.55.53-1.94-1.38.79-2.45,2.08-1.26,1.52-1.81,2.23A4.63,4.63,0,0,0,17.51,19a62,62,0,0,1-1.25,7.48Z"/><path class="cls-1" d="M27.74,9.34h0a4.21,4.21,0,0,1,0,1.38c-.25,1.65-.16,5.52-1.66,6.92l0,.15c2.26-.39,2.1-4.9,2.36-6.65S27.74,9.34,27.74,9.34Z"/><path class="cls-1" d="M26.88,8.52a1.25,1.25,0,0,1,0,.25s-.52,4.38-.71,6.14A5.29,5.29,0,0,1,25.22,18c2-1,1.87-5.45,2.14-7.26S27,8.58,26.88,8.52Z"/><path class="cls-1" d="M7,26.46,8.12,20.8S8,19,6.78,19c-3.87,0-3.9-2-4.14-4.07-.2-1.76-.71-6.14-.71-6.14s-.25-1,.48-1.1,1.11,2.07,1.53,3.67c.68,2.5,2,4.57,2.83,4.07.59-.35-.42-1.45-.87-2.13S5,11.73,5.37,11.34s1.38.79,2.46,2.08,1.25,1.52,1.81,2.23A4.67,4.67,0,0,1,10.93,19a62,62,0,0,0,1.25,7.48Z"/><path class="cls-1" d="M.71,9.34h0a4,4,0,0,0,0,1.38c.24,1.65.15,5.52,1.66,6.92l0,.15C.15,17.4.31,12.89.05,11.14S.71,9.34.71,9.34Z"/><path class="cls-1" d="M1.57,8.52a2.13,2.13,0,0,0,0,.25s.52,4.38.72,6.14A5.28,5.28,0,0,0,3.22,18c-2-1-1.87-5.45-2.14-7.26S1.43,8.58,1.57,8.52Z"/><path class="cls-1" d="M11.86,4.33,16.1,2.47a.76.76,0,0,0-.61-1.4L11.25,2.93a.76.76,0,0,0,.61,1.4Z"/><path class="cls-1" d="M11.41,2.38l2-.92a.76.76,0,0,0-.61-1.4l-2,.93a.76.76,0,0,0-.39,1A.77.77,0,0,0,11.41,2.38Z"/><path class="cls-1" d="M13.14,8.35a.75.75,0,0,0,.32-1l-.67-1.26L17.65,3.9A.76.76,0,1,0,17,2.51L11.43,5a.75.75,0,0,0-.45.61v0s0,.06,0,.08a.68.68,0,0,0,.08.34l1,1.95A.76.76,0,0,0,13.14,8.35Z"/><path class="cls-1" d="M17.57,4.81a.76.76,0,0,0-1,.33l-1,2a.76.76,0,0,0,.32,1,.77.77,0,0,0,1-.32l1.05-2A.76.76,0,0,0,17.57,4.81Z"/><path class="cls-1" d="M16.61,8.81H12.82a.57.57,0,0,0,0,1.13h3.79a.57.57,0,0,0,0-1.13Z"/><path class="cls-1" d="M16.61,10.2H12.82a.57.57,0,0,0-.56.57.56.56,0,0,0,.56.56h3.79a.56.56,0,0,0,.56-.56A.57.57,0,0,0,16.61,10.2Z"/><path class="cls-1" d="M16.81,12.23s0-.06,0-.08a.72.72,0,0,0-.69-.42H13.35a.74.74,0,0,0-.7.42l0,.08v0a.53.53,0,0,0,0,.13.54.54,0,0,0,.06.25,2.73,2.73,0,0,0,2.06,1.19,2.42,2.42,0,0,0,2.09-1.3v0a.49.49,0,0,0,0-.12.53.53,0,0,0,0-.13Z"/></g></g></svg>