<svg xmlns="http://www.w3.org/2000/svg" viewBox="0 0 17.8 17.8"><defs><style>.cls-1{fill:#020b34;}</style></defs><g id="Layer_2" data-name="Layer 2"><g id="Layer_1-2" data-name="Layer 1"><path class="cls-1" d="M4.84,4.1v.49h2V4.1ZM10.75,12v.75h2.47V12Zm0,0v.75h2.47V12Zm0-5.91v.74h2.47V6.08Zm0,2v.74h2.47V8Zm0,4v.75h2.47V12Zm0-5.91v.74h2.47V6.08Zm0,2v.74h2.47V8Zm0,4v.75h2.47V12Zm0-5.91v.74h2.47V6.08Zm0,2v.74h2.47V8Zm0,4v.75h2.47V12Zm0-5.91v.74h2.47V6.08Zm0,2v.74h2.47V8Zm0,4v.75h2.47V12Zm0-5.91v.74h2.47V6.08Zm0,2v.74h2.47V8Zm0,4v.75h2.47V12Zm0-5.91v.74h2.47V6.08Zm0,2v.74h2.47V8Zm0,4v.75h2.47V12Zm0-5.91v.74h2.47V6.08Zm0,2v.74h2.47V8Zm0,4v.75h2.47V12Zm0-5.91v.74h2.47V6.08Zm0,2v.74h2.47V8Zm0,4v.75h2.47V12Zm0-5.91v.74h2.47V6.08Zm0,2v.74h2.47V8Zm0,4v.75h2.47V12Zm0-5.91v.74h2.47V6.08Zm0,2v.74h2.47V8Zm0,4v.75h2.47V12Zm0-5.91v.74h2.47V6.08Zm0,2v.74h2.47V8Zm0,4v.75h2.47V12Zm0-5.91v.74h2.47V6.08Zm0,2v.74h2.47V8Zm0,4v.75h2.47V12Zm-1-6.91v8.63H14.2V5.08ZM13.71,13a.25.25,0,0,1-.26.26H10.5a.26.26,0,0,1-.26-.26V11.74a.26.26,0,0,1,.26-.26h2.95a.26.26,0,0,1,.26.26Zm0-2a.25.25,0,0,1-.26.26H10.5a.26.26,0,0,1-.26-.26V9.76a.26.26,0,0,1,.26-.26h2.95a.26.26,0,0,1,.26.26Zm0-2a.25.25,0,0,1-.26.26H10.5A.26.26,0,0,1,10.24,9V7.78a.26.26,0,0,1,.26-.25h2.95a.26.26,0,0,1,.26.25Zm0-1.95a.24.24,0,0,1-.26.25H10.5a.26.26,0,0,1-.26-.25V5.82a.26.26,0,0,1,.26-.25h2.95a.26.26,0,0,1,.26.25Zm-3,5.68h2.47V12H10.75Zm0-4h2.47V8H10.75Zm0-2h2.47V6.08H10.75Zm0,5.17v.75h2.47V12Zm0-4v.74h2.47V8Zm0-2v.74h2.47V6.08Zm0,5.91v.75h2.47V12Zm0-4v.74h2.47V8Zm0-2v.74h2.47V6.08Zm0,5.91v.75h2.47V12Zm0-4v.74h2.47V8Zm0-2v.74h2.47V6.08Zm0,5.91v.75h2.47V12Zm0-4v.74h2.47V8Zm0-2v.74h2.47V6.08Zm0,5.91v.75h2.47V12Zm0-4v.74h2.47V8Zm0-2v.74h2.47V6.08Zm0,5.91v.75h2.47V12Zm0-4v.74h2.47V8Zm0-2v.74h2.47V6.08Zm0,5.91v.75h2.47V12Zm0-4v.74h2.47V8Zm0-2v.74h2.47V6.08Zm0,5.91v.75h2.47V12Zm0-4v.74h2.47V8Zm0-2v.74h2.47V6.08Zm0,5.91v.75h2.47V12Zm0-4v.74h2.47V8Zm0-2v.74h2.47V6.08Zm0,5.91v.75h2.47V12Zm0-4v.74h2.47V8Zm0-2v.74h2.47V6.08Zm0,5.91v.75h2.47V12Zm0-4v.74h2.47V8Zm0,4v.75h2.47V12Zm0-4v.74h2.47V8Zm0-2v.74h2.47V6.08Zm0,2v.74h2.47V8Zm0,4v.75h2.47V12Zm0-5.91v.74h2.47V6.08Zm0,2v.74h2.47V8Zm0,4v.75h2.47V12Zm0-5.91v.74h2.47V6.08Zm0,2v.74h2.47V8Zm0,4v.75h2.47V12Zm0-5.91v.74h2.47V6.08Zm0,2v.74h2.47V8Zm0,4v.75h2.47V12Zm0-5.91v.74h2.47V6.08Zm0,2v.74h2.47V8Zm0,4v.75h2.47V12Zm0-5.91v.74h2.47V6.08Zm0,2v.74h2.47V8Zm0,4v.75h2.47V12Zm0-5.91v.74h2.47V6.08Zm0,2v.74h2.47V8Zm0,4v.75h2.47V12Zm0-5.91v.74h2.47V6.08Zm0,2v.74h2.47V8Zm0,4v.75h2.47V12Zm0-5.91v.74h2.47V6.08Zm0,2v.74h2.47V8Zm0,4v.75h2.47V12Zm0-5.91v.74h2.47V6.08Zm0,2v.74h2.47V8Zm0,4v.75h2.47V12Zm0-5.91v.74h2.47V6.08Zm0,2v.74h2.47V8Zm0,4v.75h2.47V12Zm0-5.91v.74h2.47V6.08Zm0,2v.74h2.47V8Zm0,4v.75h2.47V12Zm-1-6.91v8.63H14.2V5.08ZM13.71,13a.25.25,0,0,1-.26.26H10.5a.26.26,0,0,1-.26-.26V11.74a.26.26,0,0,1,.26-.26h2.95a.26.26,0,0,1,.26.26Zm0-2a.25.25,0,0,1-.26.26H10.5a.26.26,0,0,1-.26-.26V9.76a.26.26,0,0,1,.26-.26h2.95a.26.26,0,0,1,.26.26Zm0-2a.25.25,0,0,1-.26.26H10.5A.26.26,0,0,1,10.24,9V7.78a.26.26,0,0,1,.26-.25h2.95a.26.26,0,0,1,.26.25Zm0-1.95a.24.24,0,0,1-.26.25H10.5a.26.26,0,0,1-.26-.25V5.82a.26.26,0,0,1,.26-.25h2.95a.26.26,0,0,1,.26.25Zm-3,5.68h2.47V12H10.75Zm0-4h2.47V8H10.75Zm0-2h2.47V6.08H10.75Zm0,5.17v.75h2.47V12Zm0-4v.74h2.47V8Zm0-2v.74h2.47V6.08Zm0,5.91v.75h2.47V12Zm0-4v.74h2.47V8Zm0-2v.74h2.47V6.08Zm0,5.91v.75h2.47V12Zm0-4v.74h2.47V8Zm0-2v.74h2.47V6.08Zm0,5.91v.75h2.47V12Zm0-4v.74h2.47V8Zm0-2v.74h2.47V6.08Zm0,5.91v.75h2.47V12Zm0-4v.74h2.47V8Zm0-2v.74h2.47V6.08Zm0,5.91v.75h2.47V12Zm0-4v.74h2.47V8Zm0-2v.74h2.47V6.08Zm0,5.91v.75h2.47V12Zm0-4v.74h2.47V8Zm0-2v.74h2.47V6.08Zm0,5.91v.75h2.47V12Zm0-4v.74h2.47V8Zm0-2v.74h2.47V6.08Zm0,5.91v.75h2.47V12Zm0-4v.74h2.47V8Zm0-2v.74h2.47V6.08Zm0,5.91v.75h2.47V12Zm0-4v.74h2.47V8Zm0-2v.74h2.47V6.08Zm.23-2v.49h2V4.1Zm-.23,2v.74h2.47V6.08Zm0,2v.74h2.47V8Zm0,4v.75h2.47V12Zm0,0v.75h2.47V12Zm0-4v.74h2.47V8Zm0-2v.74h2.47V6.08Zm0,0v.74h2.47V6.08Zm0,2v.74h2.47V8Zm0,4v.75h2.47V12Zm0-5.91v.74h2.47V6.08Zm0,2v.74h2.47V8Zm0,4v.75h2.47V12Zm0-5.91v.74h2.47V6.08Zm0,2v.74h2.47V8Zm0,4v.75h2.47V12Zm0-5.91v.74h2.47V6.08Zm0,2v.74h2.47V8Zm0,4v.75h2.47V12Zm0-5.91v.74h2.47V6.08Zm0,2v.74h2.47V8Zm0,4v.75h2.47V12Zm0-5.91v.74h2.47V6.08Zm0,2v.74h2.47V8Zm0,4v.75h2.47V12Zm0-5.91v.74h2.47V6.08Zm0,2v.74h2.47V8Zm0,4v.75h2.47V12Zm0-5.91v.74h2.47V6.08Zm0,2v.74h2.47V8Zm0,4v.75h2.47V12Zm-1-6.91v8.63H14.2V5.08ZM13.71,13a.25.25,0,0,1-.26.26H10.5a.26.26,0,0,1-.26-.26V11.74a.26.26,0,0,1,.26-.26h2.95a.26.26,0,0,1,.26.26Zm0-2a.25.25,0,0,1-.26.26H10.5a.26.26,0,0,1-.26-.26V9.76a.26.26,0,0,1,.26-.26h2.95a.26.26,0,0,1,.26.26Zm0-2a.25.25,0,0,1-.26.26H10.5A.26.26,0,0,1,10.24,9V7.78a.26.26,0,0,1,.26-.25h2.95a.26.26,0,0,1,.26.25Zm0-1.95a.24.24,0,0,1-.26.25H10.5a.26.26,0,0,1-.26-.25V5.82a.26.26,0,0,1,.26-.25h2.95a.26.26,0,0,1,.26.25Zm-3,5.68h2.47V12H10.75Zm0-4h2.47V8H10.75Zm0-2h2.47V6.08H10.75Zm0,5.17v.75h2.47V12Zm0-4v.74h2.47V8Zm0-2v.74h2.47V6.08Zm0,5.91v.75h2.47V12Zm0-4v.74h2.47V8Zm0-2v.74h2.47V6.08Zm0,5.91v.75h2.47V12Zm0-4v.74h2.47V8Zm0-2v.74h2.47V6.08Zm0,5.91v.75h2.47V12Zm0-4v.74h2.47V8Zm0-2v.74h2.47V6.08Zm0,5.91v.75h2.47V12Zm0-4v.74h2.47V8Zm0-2v.74h2.47V6.08Zm0,5.91v.75h2.47V12Zm0-4v.74h2.47V8Zm0-2v.74h2.47V6.08Zm0,5.91v.75h2.47V12Zm0-4v.74h2.47V8Zm0-2v.74h2.47V6.08Zm0,5.91v.75h2.47V12Zm0-4v.74h2.47V8Zm0-2v.74h2.47V6.08Zm0,0v.74h2.47V6.08Zm0,2v.74h2.47V8Zm0,4v.75h2.47V12Zm0-5.91v.74h2.47V6.08Zm0,2v.74h2.47V8Zm0,4v.75h2.47V12Zm0-5.91v.74h2.47V6.08Zm0,2v.74h2.47V8Zm0,4v.75h2.47V12Zm0-5.91v.74h2.47V6.08Zm0,2v.74h2.47V8Zm0,4v.75h2.47V12Zm0-5.91v.74h2.47V6.08Zm0,2v.74h2.47V8Zm0,4v.75h2.47V12Zm0-5.91v.74h2.47V6.08Zm0,2v.74h2.47V8Zm0,4v.75h2.47V12Zm0-5.91v.74h2.47V6.08Zm0,2v.74h2.47V8Zm0,4v.75h2.47V12Zm0-5.91v.74h2.47V6.08Zm0,2v.74h2.47V8Zm0,4v.75h2.47V12Zm-1-6.91v8.63H14.2V5.08ZM13.71,13a.25.25,0,0,1-.26.26H10.5a.26.26,0,0,1-.26-.26V11.74a.26.26,0,0,1,.26-.26h2.95a.26.26,0,0,1,.26.26Zm0-2a.25.25,0,0,1-.26.26H10.5a.26.26,0,0,1-.26-.26V9.76a.26.26,0,0,1,.26-.26h2.95a.26.26,0,0,1,.26.26Zm0-2a.25.25,0,0,1-.26.26H10.5A.26.26,0,0,1,10.24,9V7.78a.26.26,0,0,1,.26-.25h2.95a.26.26,0,0,1,.26.25Zm0-1.95a.24.24,0,0,1-.26.25H10.5a.26.26,0,0,1-.26-.25V5.82a.26.26,0,0,1,.26-.25h2.95a.26.26,0,0,1,.26.25Zm-3,5.68h2.47V12H10.75Zm0-4h2.47V8H10.75Zm0-2h2.47V6.08H10.75Zm0,5.17v.75h2.47V12Zm0-4v.74h2.47V8Zm0-2v.74h2.47V6.08Zm0,5.91v.75h2.47V12Zm0-4v.74h2.47V8Zm0-2v.74h2.47V6.08Zm0,5.91v.75h2.47V12Zm0-4v.74h2.47V8Zm0-2v.74h2.47V6.08Zm0,5.91v.75h2.47V12Zm0-4v.74h2.47V8Zm0-2v.74h2.47V6.08Zm0,5.91v.75h2.47V12Zm0-4v.74h2.47V8Zm0-2v.74h2.47V6.08Zm0,5.91v.75h2.47V12Zm0-4v.74h2.47V8Zm0-2v.74h2.47V6.08Zm0,5.91v.75h2.47V12Zm0-4v.74h2.47V8Zm0-2v.74h2.47V6.08Zm0,5.91v.75h2.47V12Zm0-4v.74h2.47V8Zm0-2v.74h2.47V6.08Zm.23-2v.49h2V4.1ZM4.58,10v.75H7.05V10Zm0,0v.75H7.05V10Zm-1-4.93v8.63H8V5.08Zm4,7.89a.28.28,0,0,1-.25.26h-3A.26.26,0,0,1,4.09,13V11.74a.26.26,0,0,1,.26-.26h3a.26.26,0,0,1,.25.26Zm0-2a.28.28,0,0,1-.25.26h-3A.26.26,0,0,1,4.09,11V9.76a.26.26,0,0,1,.26-.26h3a.26.26,0,0,1,.25.26ZM7.31,9.27h-3a.26.26,0,1,1,0-.51h3A.26.26,0,0,1,7.56,9,.28.28,0,0,1,7.31,9.27Zm0-.72h-3a.26.26,0,0,1-.26-.26A.26.26,0,0,1,4.35,8h3a.25.25,0,0,1,.25.25A.3.3,0,0,1,7.31,8.55Zm0-.75h-3a.26.26,0,0,1-.26-.25.26.26,0,0,1,.26-.26h3a.26.26,0,0,1,.25.26A.25.25,0,0,1,7.31,7.8Zm0-.74h-3a.26.26,0,0,1-.26-.26.26.26,0,0,1,.26-.25h3a.25.25,0,0,1,.25.25A.28.28,0,0,1,7.31,7.06ZM4.58,12.74H7.05V12H4.58Zm0-2H7.05V10H4.58ZM4.84,4.1v.49h2V4.1ZM11,4.1v.49h2V4.1Zm-.23,2v.74h2.47V6.08Zm0,2v.74h2.47V8Zm0,4v.75h2.47V12Zm0,0v.75h2.47V12Zm0-4v.74h2.47V8Zm0-2v.74h2.47V6.08Zm0,0v.74h2.47V6.08Zm0,2v.74h2.47V8Zm0,4v.75h2.47V12Zm0-5.91v.74h2.47V6.08Zm0,2v.74h2.47V8Zm0,4v.75h2.47V12Zm0-5.91v.74h2.47V6.08Zm0,2v.74h2.47V8Zm0,4v.75h2.47V12Zm0-5.91v.74h2.47V6.08Zm0,2v.74h2.47V8Zm0,4v.75h2.47V12Zm0-5.91v.74h2.47V6.08Zm0,2v.74h2.47V8Zm0,4v.75h2.47V12Zm0-5.91v.74h2.47V6.08Zm0,2v.74h2.47V8Zm0,4v.75h2.47V12Zm-1-6.91v8.63H14.2V5.08ZM13.71,13a.25.25,0,0,1-.26.26H10.5a.26.26,0,0,1-.26-.26V11.74a.26.26,0,0,1,.26-.26h2.95a.26.26,0,0,1,.26.26Zm0-2a.25.25,0,0,1-.26.26H10.5a.26.26,0,0,1-.26-.26V9.76a.26.26,0,0,1,.26-.26h2.95a.26.26,0,0,1,.26.26Zm0-2a.25.25,0,0,1-.26.26H10.5A.26.26,0,0,1,10.24,9V7.78a.26.26,0,0,1,.26-.25h2.95a.26.26,0,0,1,.26.25Zm0-1.95a.24.24,0,0,1-.26.25H10.5a.26.26,0,0,1-.26-.25V5.82a.26.26,0,0,1,.26-.25h2.95a.26.26,0,0,1,.26.25Zm-3,5.68h2.47V12H10.75Zm0-4h2.47V8H10.75Zm0-2h2.47V6.08H10.75Zm0,5.17v.75h2.47V12Zm0-4v.74h2.47V8Zm0-2v.74h2.47V6.08Zm0,5.91v.75h2.47V12Zm0-4v.74h2.47V8Zm0-2v.74h2.47V6.08Zm0,5.91v.75h2.47V12Zm0-4v.74h2.47V8Zm0-2v.74h2.47V6.08Zm0,5.91v.75h2.47V12Zm0-4v.74h2.47V8Zm0-2v.74h2.47V6.08Zm0,5.91v.75h2.47V12Zm0-4v.74h2.47V8Zm0-2v.74h2.47V6.08Zm0,5.91v.75h2.47V12Zm0-4v.74h2.47V8Zm0-2v.74h2.47V6.08Zm0,0v.74h2.47V6.08Zm0,2v.74h2.47V8Zm0,4v.75h2.47V12Zm0-5.91v.74h2.47V6.08Zm0,2v.74h2.47V8Zm0,4v.75h2.47V12Zm0-5.91v.74h2.47V6.08Zm0,2v.74h2.47V8Zm0,4v.75h2.47V12Zm0-5.91v.74h2.47V6.08Zm0,2v.74h2.47V8Zm0,4v.75h2.47V12Zm0-5.91v.74h2.47V6.08Zm0,2v.74h2.47V8Zm0,4v.75h2.47V12Zm0-5.91v.74h2.47V6.08Zm0,2v.74h2.47V8Zm0,4v.75h2.47V12Zm-1-6.91v8.63H14.2V5.08ZM13.71,13a.25.25,0,0,1-.26.26H10.5a.26.26,0,0,1-.26-.26V11.74a.26.26,0,0,1,.26-.26h2.95a.26.26,0,0,1,.26.26Zm0-2a.25.25,0,0,1-.26.26H10.5a.26.26,0,0,1-.26-.26V9.76a.26.26,0,0,1,.26-.26h2.95a.26.26,0,0,1,.26.26Zm0-2a.25.25,0,0,1-.26.26H10.5A.26.26,0,0,1,10.24,9V7.78a.26.26,0,0,1,.26-.25h2.95a.26.26,0,0,1,.26.25Zm0-1.95a.24.24,0,0,1-.26.25H10.5a.26.26,0,0,1-.26-.25V5.82a.26.26,0,0,1,.26-.25h2.95a.26.26,0,0,1,.26.25Zm-3,5.68h2.47V12H10.75Zm0-4h2.47V8H10.75Zm0-2h2.47V6.08H10.75Zm0,5.17v.75h2.47V12Zm0-4v.74h2.47V8Zm0-2v.74h2.47V6.08Zm0,5.91v.75h2.47V12Zm0-4v.74h2.47V8Zm0-2v.74h2.47V6.08Zm0,5.91v.75h2.47V12Zm0-4v.74h2.47V8Zm0-2v.74h2.47V6.08Zm0,5.91v.75h2.47V12Zm0-4v.74h2.47V8Zm0-2v.74h2.47V6.08Zm0,5.91v.75h2.47V12Zm0-4v.74h2.47V8Zm0-2v.74h2.47V6.08Zm0,5.91v.75h2.47V12Zm0-4v.74h2.47V8Zm0-2v.74h2.47V6.08Zm.23-2v.49h2V4.1ZM4.58,10v.75H7.05V10Zm0,0v.75H7.05V10Zm-1-4.93v8.63H8V5.08Zm4,7.89a.28.28,0,0,1-.25.26h-3A.26.26,0,0,1,4.09,13V11.74a.26.26,0,0,1,.26-.26h3a.26.26,0,0,1,.25.26Zm0-2a.28.28,0,0,1-.25.26h-3A.26.26,0,0,1,4.09,11V9.76a.26.26,0,0,1,.26-.26h3a.26.26,0,0,1,.25.26ZM7.31,9.27h-3a.26.26,0,1,1,0-.51h3A.26.26,0,0,1,7.56,9,.28.28,0,0,1,7.31,9.27Zm0-.72h-3a.26.26,0,0,1-.26-.26A.26.26,0,0,1,4.35,8h3a.25.25,0,0,1,.25.25A.3.3,0,0,1,7.31,8.55Zm0-.75h-3a.26.26,0,0,1-.26-.25.26.26,0,0,1,.26-.26h3a.26.26,0,0,1,.25.26A.25.25,0,0,1,7.31,7.8Zm0-.74h-3a.26.26,0,0,1-.26-.26.26.26,0,0,1,.26-.25h3a.25.25,0,0,1,.25.25A.28.28,0,0,1,7.31,7.06ZM4.58,12.74H7.05V12H4.58Zm0-2H7.05V10H4.58ZM4.84,4.1v.49h2V4.1Zm0,0v.49h2V4.1ZM4.58,10v.75H7.05V10Zm0,0v.75H7.05V10Zm-1-4.93v8.63H8V5.08Zm4,7.89a.28.28,0,0,1-.25.26h-3A.26.26,0,0,1,4.09,13V11.74a.26.26,0,0,1,.26-.26h3a.26.26,0,0,1,.25.26Zm0-2a.28.28,0,0,1-.25.26h-3A.26.26,0,0,1,4.09,11V9.76a.26.26,0,0,1,.26-.26h3a.26.26,0,0,1,.25.26ZM7.31,9.27h-3a.26.26,0,1,1,0-.51h3A.26.26,0,0,1,7.56,9,.28.28,0,0,1,7.31,9.27Zm0-.72h-3a.26.26,0,0,1-.26-.26A.26.26,0,0,1,4.35,8h3a.25.25,0,0,1,.25.25A.3.3,0,0,1,7.31,8.55Zm0-.75h-3a.26.26,0,0,1-.26-.25.26.26,0,0,1,.26-.26h3a.26.26,0,0,1,.25.26A.25.25,0,0,1,7.31,7.8Zm0-.74h-3a.26.26,0,0,1-.26-.26.26.26,0,0,1,.26-.25h3a.25.25,0,0,1,.25.25A.28.28,0,0,1,7.31,7.06ZM4.58,12.74H7.05V12H4.58Zm0-2H7.05V10H4.58ZM11,4.1v.49h2V4.1Zm-.23,2v.74h2.47V6.08Zm0,2v.74h2.47V8Zm0,4v.75h2.47V12Zm0,0v.75h2.47V12Zm0-4v.74h2.47V8Zm0-2v.74h2.47V6.08Zm0,0v.74h2.47V6.08Zm0,2v.74h2.47V8Zm0,4v.75h2.47V12Zm0-5.91v.74h2.47V6.08Zm0,2v.74h2.47V8Zm0,4v.75h2.47V12Zm0-5.91v.74h2.47V6.08Zm0,2v.74h2.47V8Zm0,4v.75h2.47V12Zm0-5.91v.74h2.47V6.08Zm0,2v.74h2.47V8Zm0,4v.75h2.47V12Zm-1-6.91v8.63H14.2V5.08ZM13.71,13a.25.25,0,0,1-.26.26H10.5a.26.26,0,0,1-.26-.26V11.74a.26.26,0,0,1,.26-.26h2.95a.26.26,0,0,1,.26.26Zm0-2a.25.25,0,0,1-.26.26H10.5a.26.26,0,0,1-.26-.26V9.76a.26.26,0,0,1,.26-.26h2.95a.26.26,0,0,1,.26.26Zm0-2a.25.25,0,0,1-.26.26H10.5A.26.26,0,0,1,10.24,9V7.78a.26.26,0,0,1,.26-.25h2.95a.26.26,0,0,1,.26.25Zm0-1.95a.24.24,0,0,1-.26.25H10.5a.26.26,0,0,1-.26-.25V5.82a.26.26,0,0,1,.26-.25h2.95a.26.26,0,0,1,.26.25Zm-3,5.68h2.47V12H10.75Zm0-4h2.47V8H10.75Zm0-2h2.47V6.08H10.75Zm0,5.17v.75h2.47V12Zm0-4v.74h2.47V8Zm0-2v.74h2.47V6.08Zm0,5.91v.75h2.47V12Zm0-4v.74h2.47V8Zm0-2v.74h2.47V6.08Zm0,5.91v.75h2.47V12Zm0-4v.74h2.47V8Zm0-2v.74h2.47V6.08Zm0,5.91v.75h2.47V12Zm0-4v.74h2.47V8Zm0-2v.74h2.47V6.08Zm0,0v.74h2.47V6.08Zm0,2v.74h2.47V8Zm0,4v.75h2.47V12Zm0-5.91v.74h2.47V6.08Zm0,2v.74h2.47V8Zm0,4v.75h2.47V12Zm0-5.91v.74h2.47V6.08Zm0,2v.74h2.47V8Zm0,4v.75h2.47V12Zm0-5.91v.74h2.47V6.08Zm0,2v.74h2.47V8Zm0,4v.75h2.47V12Zm-1-6.91v8.63H14.2V5.08ZM13.71,13a.25.25,0,0,1-.26.26H10.5a.26.26,0,0,1-.26-.26V11.74a.26.26,0,0,1,.26-.26h2.95a.26.26,0,0,1,.26.26Zm0-2a.25.25,0,0,1-.26.26H10.5a.26.26,0,0,1-.26-.26V9.76a.26.26,0,0,1,.26-.26h2.95a.26.26,0,0,1,.26.26Zm0-2a.25.25,0,0,1-.26.26H10.5A.26.26,0,0,1,10.24,9V7.78a.26.26,0,0,1,.26-.25h2.95a.26.26,0,0,1,.26.25Zm0-1.95a.24.24,0,0,1-.26.25H10.5a.26.26,0,0,1-.26-.25V5.82a.26.26,0,0,1,.26-.25h2.95a.26.26,0,0,1,.26.25Zm-3,5.68h2.47V12H10.75Zm0-4h2.47V8H10.75Zm0-2h2.47V6.08H10.75Zm0,5.17v.75h2.47V12Zm0-4v.74h2.47V8Zm0-2v.74h2.47V6.08Zm0,5.91v.75h2.47V12Zm0-4v.74h2.47V8Zm0-2v.74h2.47V6.08Zm0,5.91v.75h2.47V12Zm0-4v.74h2.47V8Zm0-2v.74h2.47V6.08Zm0,5.91v.75h2.47V12Zm0-4v.74h2.47V8Zm0-2v.74h2.47V6.08Zm.23-2v.49h2V4.1ZM4.58,10v.75H7.05V10Zm0,0v.75H7.05V10Zm-1-4.93v8.63H8V5.08Zm4,7.89a.28.28,0,0,1-.25.26h-3A.26.26,0,0,1,4.09,13V11.74a.26.26,0,0,1,.26-.26h3a.26.26,0,0,1,.25.26Zm0-2a.28.28,0,0,1-.25.26h-3A.26.26,0,0,1,4.09,11V9.76a.26.26,0,0,1,.26-.26h3a.26.26,0,0,1,.25.26ZM7.31,9.27h-3a.26.26,0,1,1,0-.51h3A.26.26,0,0,1,7.56,9,.28.28,0,0,1,7.31,9.27Zm0-.72h-3a.26.26,0,0,1-.26-.26A.26.26,0,0,1,4.35,8h3a.25.25,0,0,1,.25.25A.3.3,0,0,1,7.31,8.55Zm0-.75h-3a.26.26,0,0,1-.26-.25.26.26,0,0,1,.26-.26h3a.26.26,0,0,1,.25.26A.25.25,0,0,1,7.31,7.8Zm0-.74h-3a.26.26,0,0,1-.26-.26.26.26,0,0,1,.26-.25h3a.25.25,0,0,1,.25.25A.28.28,0,0,1,7.31,7.06ZM4.58,12.74H7.05V12H4.58Zm0-2H7.05V10H4.58ZM4.84,4.1v.49h2V4.1Zm0,0v.49h2V4.1ZM4.58,10v.75H7.05V10Zm0,0v.75H7.05V10Zm-1-4.93v8.63H8V5.08Zm4,7.89a.28.28,0,0,1-.25.26h-3A.26.26,0,0,1,4.09,13V11.74a.26.26,0,0,1,.26-.26h3a.26.26,0,0,1,.25.26Zm0-2a.28.28,0,0,1-.25.26h-3A.26.26,0,0,1,4.09,11V9.76a.26.26,0,0,1,.26-.26h3a.26.26,0,0,1,.25.26ZM7.31,9.27h-3a.26.26,0,1,1,0-.51h3A.26.26,0,0,1,7.56,9,.28.28,0,0,1,7.31,9.27Zm0-.72h-3a.26.26,0,0,1-.26-.26A.26.26,0,0,1,4.35,8h3a.25.25,0,0,1,.25.25A.3.3,0,0,1,7.31,8.55Zm0-.75h-3a.26.26,0,0,1-.26-.25.26.26,0,0,1,.26-.26h3a.26.26,0,0,1,.25.26A.25.25,0,0,1,7.31,7.8Zm0-.74h-3a.26.26,0,0,1-.26-.26.26.26,0,0,1,.26-.25h3a.25.25,0,0,1,.25.25A.28.28,0,0,1,7.31,7.06ZM4.58,12.74H7.05V12H4.58Zm0-2H7.05V10H4.58ZM11,4.1v.49h2V4.1Zm-.23,2v.74h2.47V6.08Zm0,2v.74h2.47V8Zm0,4v.75h2.47V12Zm0,0v.75h2.47V12Zm0-4v.74h2.47V8Zm0-2v.74h2.47V6.08Zm0,0v.74h2.47V6.08Zm0,2v.74h2.47V8Zm0,4v.75h2.47V12Zm0-5.91v.74h2.47V6.08Zm0,2v.74h2.47V8Zm0,4v.75h2.47V12Zm-1-6.91v8.63H14.2V5.08ZM13.71,13a.25.25,0,0,1-.26.26H10.5a.26.26,0,0,1-.26-.26V11.74a.26.26,0,0,1,.26-.26h2.95a.26.26,0,0,1,.26.26Zm0-2a.25.25,0,0,1-.26.26H10.5a.26.26,0,0,1-.26-.26V9.76a.26.26,0,0,1,.26-.26h2.95a.26.26,0,0,1,.26.26Zm0-2a.25.25,0,0,1-.26.26H10.5A.26.26,0,0,1,10.24,9V7.78a.26.26,0,0,1,.26-.25h2.95a.26.26,0,0,1,.26.25Zm0-1.95a.24.24,0,0,1-.26.25H10.5a.26.26,0,0,1-.26-.25V5.82a.26.26,0,0,1,.26-.25h2.95a.26.26,0,0,1,.26.25Zm-3,5.68h2.47V12H10.75Zm0-4h2.47V8H10.75Zm0-2h2.47V6.08H10.75Zm0,5.17v.75h2.47V12Zm0-4v.74h2.47V8Zm0-2v.74h2.47V6.08Zm0,5.91v.75h2.47V12Zm0-4v.74h2.47V8Zm0-2v.74h2.47V6.08Zm0,0v.74h2.47V6.08Zm0,2v.74h2.47V8Zm0,4v.75h2.47V12Zm0-5.91v.74h2.47V6.08Zm0,2v.74h2.47V8Zm0,4v.75h2.47V12Zm-1-6.91v8.63H14.2V5.08ZM13.71,13a.25.25,0,0,1-.26.26H10.5a.26.26,0,0,1-.26-.26V11.74a.26.26,0,0,1,.26-.26h2.95a.26.26,0,0,1,.26.26Zm0-2a.25.25,0,0,1-.26.26H10.5a.26.26,0,0,1-.26-.26V9.76a.26.26,0,0,1,.26-.26h2.95a.26.26,0,0,1,.26.26Zm0-2a.25.25,0,0,1-.26.26H10.5A.26.26,0,0,1,10.24,9V7.78a.26.26,0,0,1,.26-.25h2.95a.26.26,0,0,1,.26.25Zm0-1.95a.24.24,0,0,1-.26.25H10.5a.26.26,0,0,1-.26-.25V5.82a.26.26,0,0,1,.26-.25h2.95a.26.26,0,0,1,.26.25Zm-3,5.68h2.47V12H10.75Zm0-4h2.47V8H10.75Zm0-2h2.47V6.08H10.75Zm0,5.17v.75h2.47V12Zm0-4v.74h2.47V8Zm0-2v.74h2.47V6.08Zm0,5.91v.75h2.47V12Zm0-4v.74h2.47V8Zm0-2v.74h2.47V6.08Zm.23-2v.49h2V4.1ZM4.58,10v.75H7.05V10Zm0,0v.75H7.05V10Zm-1-4.93v8.63H8V5.08Zm4,7.89a.28.28,0,0,1-.25.26h-3A.26.26,0,0,1,4.09,13V11.74a.26.26,0,0,1,.26-.26h3a.26.26,0,0,1,.25.26Zm0-2a.28.28,0,0,1-.25.26h-3A.26.26,0,0,1,4.09,11V9.76a.26.26,0,0,1,.26-.26h3a.26.26,0,0,1,.25.26ZM7.31,9.27h-3a.26.26,0,1,1,0-.51h3A.26.26,0,0,1,7.56,9,.28.28,0,0,1,7.31,9.27Zm0-.72h-3a.26.26,0,0,1-.26-.26A.26.26,0,0,1,4.35,8h3a.25.25,0,0,1,.25.25A.3.3,0,0,1,7.31,8.55Zm0-.75h-3a.26.26,0,0,1-.26-.25.26.26,0,0,1,.26-.26h3a.26.26,0,0,1,.25.26A.25.25,0,0,1,7.31,7.8Zm0-.74h-3a.26.26,0,0,1-.26-.26.26.26,0,0,1,.26-.25h3a.25.25,0,0,1,.25.25A.28.28,0,0,1,7.31,7.06ZM4.58,12.74H7.05V12H4.58Zm0-2H7.05V10H4.58ZM4.84,4.1v.49h2V4.1Zm0,0v.49h2V4.1ZM4.58,10v.75H7.05V10Zm0,0v.75H7.05V10Zm-1-4.93v8.63H8V5.08Zm4,7.89a.28.28,0,0,1-.25.26h-3A.26.26,0,0,1,4.09,13V11.74a.26.26,0,0,1,.26-.26h3a.26.26,0,0,1,.25.26Zm0-2a.28.28,0,0,1-.25.26h-3A.26.26,0,0,1,4.09,11V9.76a.26.26,0,0,1,.26-.26h3a.26.26,0,0,1,.25.26ZM7.31,9.27h-3a.26.26,0,1,1,0-.51h3A.26.26,0,0,1,7.56,9,.28.28,0,0,1,7.31,9.27Zm0-.72h-3a.26.26,0,0,1-.26-.26A.26.26,0,0,1,4.35,8h3a.25.25,0,0,1,.25.25A.3.3,0,0,1,7.31,8.55Zm0-.75h-3a.26.26,0,0,1-.26-.25.26.26,0,0,1,.26-.26h3a.26.26,0,0,1,.25.26A.25.25,0,0,1,7.31,7.8Zm0-.74h-3a.26.26,0,0,1-.26-.26.26.26,0,0,1,.26-.25h3a.25.25,0,0,1,.25.25A.28.28,0,0,1,7.31,7.06ZM4.58,12.74H7.05V12H4.58Zm0-2H7.05V10H4.58ZM11,4.1v.49h2V4.1Zm-.23,2v.74h2.47V6.08Zm0,2v.74h2.47V8Zm0,4v.75h2.47V12Zm0,0v.75h2.47V12Zm0-4v.74h2.47V8Zm0-2v.74h2.47V6.08Zm-1-1v8.63H14.2V5.08ZM13.71,13a.25.25,0,0,1-.26.26H10.5a.26.26,0,0,1-.26-.26V11.74a.26.26,0,0,1,.26-.26h2.95a.26.26,0,0,1,.26.26Zm0-2a.25.25,0,0,1-.26.26H10.5a.26.26,0,0,1-.26-.26V9.76a.26.26,0,0,1,.26-.26h2.95a.26.26,0,0,1,.26.26Zm0-2a.25.25,0,0,1-.26.26H10.5A.26.26,0,0,1,10.24,9V7.78a.26.26,0,0,1,.26-.25h2.95a.26.26,0,0,1,.26.25Zm0-1.95a.24.24,0,0,1-.26.25H10.5a.26.26,0,0,1-.26-.25V5.82a.26.26,0,0,1,.26-.25h2.95a.26.26,0,0,1,.26.25Zm-3,5.68h2.47V12H10.75Zm0-4h2.47V8H10.75Zm0-2h2.47V6.08H10.75Zm-1-1.74v8.63H14.2V5.08ZM13.71,13a.25.25,0,0,1-.26.26H10.5a.26.26,0,0,1-.26-.26V11.74a.26.26,0,0,1,.26-.26h2.95a.26.26,0,0,1,.26.26Zm0-2a.25.25,0,0,1-.26.26H10.5a.26.26,0,0,1-.26-.26V9.76a.26.26,0,0,1,.26-.26h2.95a.26.26,0,0,1,.26.26Zm0-2a.25.25,0,0,1-.26.26H10.5A.26.26,0,0,1,10.24,9V7.78a.26.26,0,0,1,.26-.25h2.95a.26.26,0,0,1,.26.25Zm0-1.95a.24.24,0,0,1-.26.25H10.5a.26.26,0,0,1-.26-.25V5.82a.26.26,0,0,1,.26-.25h2.95a.26.26,0,0,1,.26.25Zm-3,5.68h2.47V12H10.75Zm0-4h2.47V8H10.75Zm0-2h2.47V6.08H10.75ZM13,4.1H11v.49h2Zm-9.36,1v8.63H8V5.08Zm4,7.89a.28.28,0,0,1-.25.26h-3A.26.26,0,0,1,4.09,13V11.74a.26.26,0,0,1,.26-.26h3a.26.26,0,0,1,.25.26Zm0-2a.28.28,0,0,1-.25.26h-3A.26.26,0,0,1,4.09,11V9.76a.26.26,0,0,1,.26-.26h3a.26.26,0,0,1,.25.26ZM7.31,9.27h-3a.26.26,0,1,1,0-.51h3A.26.26,0,0,1,7.56,9,.28.28,0,0,1,7.31,9.27Zm0-.72h-3a.26.26,0,0,1-.26-.26A.26.26,0,0,1,4.35,8h3a.25.25,0,0,1,.25.25A.3.3,0,0,1,7.31,8.55Zm0-.75h-3a.26.26,0,0,1-.26-.25.26.26,0,0,1,.26-.26h3a.26.26,0,0,1,.25.26A.25.25,0,0,1,7.31,7.8Zm0-.74h-3a.26.26,0,0,1-.26-.26.26.26,0,0,1,.26-.25h3a.25.25,0,0,1,.25.25A.28.28,0,0,1,7.31,7.06ZM4.58,12.74H7.05V12H4.58Zm0-2H7.05V10H4.58ZM6.82,4.1h-2v.49h2ZM8.9,0a8.9,8.9,0,1,0,8.9,8.9A8.89,8.89,0,0,0,8.9,0ZM8.54,14a.25.25,0,0,1-.26.23H3.35A.26.26,0,0,1,3.09,14V4.85a.26.26,0,0,1,.26-.26h1V3.85a.26.26,0,0,1,.25-.26H7.05a.26.26,0,0,1,.26.26v.74h1a.26.26,0,0,1,.26.26Zm6.17,0a.27.27,0,0,1-.26.23H9.52A.26.26,0,0,1,9.26,14V4.85a.26.26,0,0,1,.26-.26h1V3.85a.26.26,0,0,1,.25-.26h2.47a.26.26,0,0,1,.25.26v.74h1a.26.26,0,0,1,.26.26Zm-4.94-.26H14.2V5.08H9.77Zm.47-7.89a.26.26,0,0,1,.26-.25h2.95a.26.26,0,0,1,.26.25V7.06a.24.24,0,0,1-.26.25H10.5a.26.26,0,0,1-.26-.25Zm0,2a.26.26,0,0,1,.26-.25h2.95a.26.26,0,0,1,.26.25V9a.25.25,0,0,1-.26.26H10.5A.26.26,0,0,1,10.24,9Zm0,2a.26.26,0,0,1,.26-.26h2.95a.26.26,0,0,1,.26.26V11a.25.25,0,0,1-.26.26H10.5a.26.26,0,0,1-.26-.26Zm0,2a.26.26,0,0,1,.26-.26h2.95a.26.26,0,0,1,.26.26V13a.25.25,0,0,1-.26.26H10.5a.26.26,0,0,1-.26-.26Zm3,.25H10.75v.75h2.47Zm0-4H10.75v.74h2.47Zm0-2H10.75v.74h2.47ZM13,4.1H11v.49h2ZM3.6,13.71H8V5.08H3.6Zm.75-7.16h3a.25.25,0,0,1,.25.25.28.28,0,0,1-.25.26h-3a.26.26,0,0,1-.26-.26A.26.26,0,0,1,4.35,6.55Zm0,.74h3a.26.26,0,0,1,.25.26.25.25,0,0,1-.25.25h-3a.26.26,0,0,1-.26-.25A.26.26,0,0,1,4.35,7.29Zm0,.75h3a.25.25,0,0,1,.25.25.3.3,0,0,1-.25.26h-3a.26.26,0,0,1-.26-.26A.26.26,0,0,1,4.35,8Zm0,.72h3A.26.26,0,0,1,7.56,9a.28.28,0,0,1-.25.26h-3a.26.26,0,1,1,0-.51Zm-.26,1a.26.26,0,0,1,.26-.26h3a.26.26,0,0,1,.25.26V11a.28.28,0,0,1-.25.26h-3A.26.26,0,0,1,4.09,11Zm0,2a.26.26,0,0,1,.26-.26h3a.26.26,0,0,1,.25.26V13a.28.28,0,0,1-.25.26h-3A.26.26,0,0,1,4.09,13Zm3,.25H4.58v.75H7.05Zm0-2H4.58v.75H7.05ZM6.82,4.1h-2v.49h2Zm-2,0v.49h2V4.1ZM4.58,10v.75H7.05V10Zm0,0v.75H7.05V10Zm-1-4.93v8.63H8V5.08Zm4,7.89a.28.28,0,0,1-.25.26h-3A.26.26,0,0,1,4.09,13V11.74a.26.26,0,0,1,.26-.26h3a.26.26,0,0,1,.25.26Zm0-2a.28.28,0,0,1-.25.26h-3A.26.26,0,0,1,4.09,11V9.76a.26.26,0,0,1,.26-.26h3a.26.26,0,0,1,.25.26ZM7.31,9.27h-3a.26.26,0,1,1,0-.51h3A.26.26,0,0,1,7.56,9,.28.28,0,0,1,7.31,9.27Zm0-.72h-3a.26.26,0,0,1-.26-.26A.26.26,0,0,1,4.35,8h3a.25.25,0,0,1,.25.25A.3.3,0,0,1,7.31,8.55Zm0-.75h-3a.26.26,0,0,1-.26-.25.26.26,0,0,1,.26-.26h3a.26.26,0,0,1,.25.26A.25.25,0,0,1,7.31,7.8Zm0-.74h-3a.26.26,0,0,1-.26-.26.26.26,0,0,1,.26-.25h3a.25.25,0,0,1,.25.25A.28.28,0,0,1,7.31,7.06ZM4.58,12.74H7.05V12H4.58Zm0-2H7.05V10H4.58ZM11,4.1v.49h2V4.1Zm-.23,2v.74h2.47V6.08Zm0,2v.74h2.47V8Zm0,4v.75h2.47V12Zm0-5.91v.74h2.47V6.08Zm0,2v.74h2.47V8Zm0,4v.75h2.47V12Zm-1-6.91v8.63H14.2V5.08ZM13.71,13a.25.25,0,0,1-.26.26H10.5a.26.26,0,0,1-.26-.26V11.74a.26.26,0,0,1,.26-.26h2.95a.26.26,0,0,1,.26.26Zm0-2a.25.25,0,0,1-.26.26H10.5a.26.26,0,0,1-.26-.26V9.76a.26.26,0,0,1,.26-.26h2.95a.26.26,0,0,1,.26.26Zm0-2a.25.25,0,0,1-.26.26H10.5A.26.26,0,0,1,10.24,9V7.78a.26.26,0,0,1,.26-.25h2.95a.26.26,0,0,1,.26.25Zm0-1.95a.24.24,0,0,1-.26.25H10.5a.26.26,0,0,1-.26-.25V5.82a.26.26,0,0,1,.26-.25h2.95a.26.26,0,0,1,.26.25Zm-3,5.68h2.47V12H10.75Zm0-4h2.47V8H10.75Zm0-2h2.47V6.08H10.75Zm0-.74v.74h2.47V6.08Zm0,2v.74h2.47V8Zm0,4v.75h2.47V12Zm0-5.91v.74h2.47V6.08Zm0,2v.74h2.47V8Zm0,4v.75h2.47V12Zm-1-6.91v8.63H14.2V5.08ZM13.71,13a.25.25,0,0,1-.26.26H10.5a.26.26,0,0,1-.26-.26V11.74a.26.26,0,0,1,.26-.26h2.95a.26.26,0,0,1,.26.26Zm0-2a.25.25,0,0,1-.26.26H10.5a.26.26,0,0,1-.26-.26V9.76a.26.26,0,0,1,.26-.26h2.95a.26.26,0,0,1,.26.26Zm0-2a.25.25,0,0,1-.26.26H10.5A.26.26,0,0,1,10.24,9V7.78a.26.26,0,0,1,.26-.25h2.95a.26.26,0,0,1,.26.25Zm0-1.95a.24.24,0,0,1-.26.25H10.5a.26.26,0,0,1-.26-.25V5.82a.26.26,0,0,1,.26-.25h2.95a.26.26,0,0,1,.26.25Zm-3,5.68h2.47V12H10.75Zm0-4h2.47V8H10.75Zm0-2h2.47V6.08H10.75Zm0-.74v.74h2.47V6.08Zm0,2v.74h2.47V8Zm0,4v.75h2.47V12Zm0,0v.75h2.47V12Zm0-4v.74h2.47V8Zm0-2v.74h2.47V6.08Zm.23-2v.49h2V4.1ZM4.58,10v.75H7.05V10Zm0,0v.75H7.05V10Zm-1-4.93v8.63H8V5.08Zm4,7.89a.28.28,0,0,1-.25.26h-3A.26.26,0,0,1,4.09,13V11.74a.26.26,0,0,1,.26-.26h3a.26.26,0,0,1,.25.26Zm0-2a.28.28,0,0,1-.25.26h-3A.26.26,0,0,1,4.09,11V9.76a.26.26,0,0,1,.26-.26h3a.26.26,0,0,1,.25.26ZM7.31,9.27h-3a.26.26,0,1,1,0-.51h3A.26.26,0,0,1,7.56,9,.28.28,0,0,1,7.31,9.27Zm0-.72h-3a.26.26,0,0,1-.26-.26A.26.26,0,0,1,4.35,8h3a.25.25,0,0,1,.25.25A.3.3,0,0,1,7.31,8.55Zm0-.75h-3a.26.26,0,0,1-.26-.25.26.26,0,0,1,.26-.26h3a.26.26,0,0,1,.25.26A.25.25,0,0,1,7.31,7.8Zm0-.74h-3a.26.26,0,0,1-.26-.26.26.26,0,0,1,.26-.25h3a.25.25,0,0,1,.25.25A.28.28,0,0,1,7.31,7.06ZM4.58,12.74H7.05V12H4.58Zm0-2H7.05V10H4.58ZM4.84,4.1v.49h2V4.1Zm0,0v.49h2V4.1ZM4.58,10v.75H7.05V10Zm0,0v.75H7.05V10Zm-1-4.93v8.63H8V5.08Zm4,7.89a.28.28,0,0,1-.25.26h-3A.26.26,0,0,1,4.09,13V11.74a.26.26,0,0,1,.26-.26h3a.26.26,0,0,1,.25.26Zm0-2a.28.28,0,0,1-.25.26h-3A.26.26,0,0,1,4.09,11V9.76a.26.26,0,0,1,.26-.26h3a.26.26,0,0,1,.25.26ZM7.31,9.27h-3a.26.26,0,1,1,0-.51h3A.26.26,0,0,1,7.56,9,.28.28,0,0,1,7.31,9.27Zm0-.72h-3a.26.26,0,0,1-.26-.26A.26.26,0,0,1,4.35,8h3a.25.25,0,0,1,.25.25A.3.3,0,0,1,7.31,8.55Zm0-.75h-3a.26.26,0,0,1-.26-.25.26.26,0,0,1,.26-.26h3a.26.26,0,0,1,.25.26A.25.25,0,0,1,7.31,7.8Zm0-.74h-3a.26.26,0,0,1-.26-.26.26.26,0,0,1,.26-.25h3a.25.25,0,0,1,.25.25A.28.28,0,0,1,7.31,7.06ZM4.58,12.74H7.05V12H4.58Zm0-2H7.05V10H4.58ZM11,4.1v.49h2V4.1Zm-.23,2v.74h2.47V6.08Zm0,2v.74h2.47V8Zm0,4v.75h2.47V12Zm0-5.91v.74h2.47V6.08Zm0,2v.74h2.47V8Zm0,4v.75h2.47V12Zm0-5.91v.74h2.47V6.08Zm0,2v.74h2.47V8Zm0,4v.75h2.47V12Zm0-5.91v.74h2.47V6.08Zm0,2v.74h2.47V8Zm0,4v.75h2.47V12Zm-1-6.91v8.63H14.2V5.08ZM13.71,13a.25.25,0,0,1-.26.26H10.5a.26.26,0,0,1-.26-.26V11.74a.26.26,0,0,1,.26-.26h2.95a.26.26,0,0,1,.26.26Zm0-2a.25.25,0,0,1-.26.26H10.5a.26.26,0,0,1-.26-.26V9.76a.26.26,0,0,1,.26-.26h2.95a.26.26,0,0,1,.26.26Zm0-2a.25.25,0,0,1-.26.26H10.5A.26.26,0,0,1,10.24,9V7.78a.26.26,0,0,1,.26-.25h2.95a.26.26,0,0,1,.26.25Zm0-1.95a.24.24,0,0,1-.26.25H10.5a.26.26,0,0,1-.26-.25V5.82a.26.26,0,0,1,.26-.25h2.95a.26.26,0,0,1,.26.25Zm-3,5.68h2.47V12H10.75Zm0-4h2.47V8H10.75Zm0-2h2.47V6.08H10.75Zm0,5.17v.75h2.47V12Zm0-4v.74h2.47V8Zm0-2v.74h2.47V6.08Zm0,5.91v.75h2.47V12Zm0-4v.74h2.47V8Zm0-2v.74h2.47V6.08Zm0,0v.74h2.47V6.08Zm0,2v.74h2.47V8Zm0,4v.75h2.47V12Zm0-5.91v.74h2.47V6.08Zm0,2v.74h2.47V8Zm0,4v.75h2.47V12Zm0-5.91v.74h2.47V6.08Zm0,2v.74h2.47V8Zm0,4v.75h2.47V12Zm0-5.91v.74h2.47V6.08Zm0,2v.74h2.47V8Zm0,4v.75h2.47V12Zm-1-6.91v8.63H14.2V5.08ZM13.71,13a.25.25,0,0,1-.26.26H10.5a.26.26,0,0,1-.26-.26V11.74a.26.26,0,0,1,.26-.26h2.95a.26.26,0,0,1,.26.26Zm0-2a.25.25,0,0,1-.26.26H10.5a.26.26,0,0,1-.26-.26V9.76a.26.26,0,0,1,.26-.26h2.95a.26.26,0,0,1,.26.26Zm0-2a.25.25,0,0,1-.26.26H10.5A.26.26,0,0,1,10.24,9V7.78a.26.26,0,0,1,.26-.25h2.95a.26.26,0,0,1,.26.25Zm0-1.95a.24.24,0,0,1-.26.25H10.5a.26.26,0,0,1-.26-.25V5.82a.26.26,0,0,1,.26-.25h2.95a.26.26,0,0,1,.26.25Zm-3,5.68h2.47V12H10.75Zm0-4h2.47V8H10.75Zm0-2h2.47V6.08H10.75Zm0,5.17v.75h2.47V12Zm0-4v.74h2.47V8Zm0-2v.74h2.47V6.08Zm0,5.91v.75h2.47V12Zm0-4v.74h2.47V8Zm0-2v.74h2.47V6.08Zm0,0v.74h2.47V6.08Zm0,2v.74h2.47V8Zm0,4v.75h2.47V12Zm0,0v.75h2.47V12Zm0-4v.74h2.47V8Zm0-2v.74h2.47V6.08Zm.23-2v.49h2V4.1ZM4.58,10v.75H7.05V10Zm0,0v.75H7.05V10Zm-1-4.93v8.63H8V5.08Zm4,7.89a.28.28,0,0,1-.25.26h-3A.26.26,0,0,1,4.09,13V11.74a.26.26,0,0,1,.26-.26h3a.26.26,0,0,1,.25.26Zm0-2a.28.28,0,0,1-.25.26h-3A.26.26,0,0,1,4.09,11V9.76a.26.26,0,0,1,.26-.26h3a.26.26,0,0,1,.25.26ZM7.31,9.27h-3a.26.26,0,1,1,0-.51h3A.26.26,0,0,1,7.56,9,.28.28,0,0,1,7.31,9.27Zm0-.72h-3a.26.26,0,0,1-.26-.26A.26.26,0,0,1,4.35,8h3a.25.25,0,0,1,.25.25A.3.3,0,0,1,7.31,8.55Zm0-.75h-3a.26.26,0,0,1-.26-.25.26.26,0,0,1,.26-.26h3a.26.26,0,0,1,.25.26A.25.25,0,0,1,7.31,7.8Zm0-.74h-3a.26.26,0,0,1-.26-.26.26.26,0,0,1,.26-.25h3a.25.25,0,0,1,.25.25A.28.28,0,0,1,7.31,7.06ZM4.58,12.74H7.05V12H4.58Zm0-2H7.05V10H4.58ZM4.84,4.1v.49h2V4.1Zm0,0v.49h2V4.1ZM4.58,10v.75H7.05V10Zm0,0v.75H7.05V10Zm-1-4.93v8.63H8V5.08Zm4,7.89a.28.28,0,0,1-.25.26h-3A.26.26,0,0,1,4.09,13V11.74a.26.26,0,0,1,.26-.26h3a.26.26,0,0,1,.25.26Zm0-2a.28.28,0,0,1-.25.26h-3A.26.26,0,0,1,4.09,11V9.76a.26.26,0,0,1,.26-.26h3a.26.26,0,0,1,.25.26ZM7.31,9.27h-3a.26.26,0,1,1,0-.51h3A.26.26,0,0,1,7.56,9,.28.28,0,0,1,7.31,9.27Zm0-.72h-3a.26.26,0,0,1-.26-.26A.26.26,0,0,1,4.35,8h3a.25.25,0,0,1,.25.25A.3.3,0,0,1,7.31,8.55Zm0-.75h-3a.26.26,0,0,1-.26-.25.26.26,0,0,1,.26-.26h3a.26.26,0,0,1,.25.26A.25.25,0,0,1,7.31,7.8Zm0-.74h-3a.26.26,0,0,1-.26-.26.26.26,0,0,1,.26-.25h3a.25.25,0,0,1,.25.25A.28.28,0,0,1,7.31,7.06ZM4.58,12.74H7.05V12H4.58Zm0-2H7.05V10H4.58ZM11,4.1v.49h2V4.1Zm-.23,2v.74h2.47V6.08Zm0,2v.74h2.47V8Zm0,4v.75h2.47V12Zm0-5.91v.74h2.47V6.08Zm0,2v.74h2.47V8Zm0,4v.75h2.47V12Zm0-5.91v.74h2.47V6.08Zm0,2v.74h2.47V8Zm0,4v.75h2.47V12Zm0-5.91v.74h2.47V6.08Zm0,2v.74h2.47V8Zm0,4v.75h2.47V12Zm0-5.91v.74h2.47V6.08Zm0,2v.74h2.47V8Zm0,4v.75h2.47V12Zm0-5.91v.74h2.47V6.08Zm0,2v.74h2.47V8Zm0,4v.75h2.47V12Zm-1-6.91v8.63H14.2V5.08ZM13.71,13a.25.25,0,0,1-.26.26H10.5a.26.26,0,0,1-.26-.26V11.74a.26.26,0,0,1,.26-.26h2.95a.26.26,0,0,1,.26.26Zm0-2a.25.25,0,0,1-.26.26H10.5a.26.26,0,0,1-.26-.26V9.76a.26.26,0,0,1,.26-.26h2.95a.26.26,0,0,1,.26.26Zm0-2a.25.25,0,0,1-.26.26H10.5A.26.26,0,0,1,10.24,9V7.78a.26.26,0,0,1,.26-.25h2.95a.26.26,0,0,1,.26.25Zm0-1.95a.24.24,0,0,1-.26.25H10.5a.26.26,0,0,1-.26-.25V5.82a.26.26,0,0,1,.26-.25h2.95a.26.26,0,0,1,.26.25Zm-3,5.68h2.47V12H10.75Zm0-4h2.47V8H10.75Zm0-2h2.47V6.08H10.75Zm0,5.17v.75h2.47V12Zm0-4v.74h2.47V8Zm0-2v.74h2.47V6.08Zm0,5.91v.75h2.47V12Zm0-4v.74h2.47V8Zm0-2v.74h2.47V6.08Zm0,5.91v.75h2.47V12Zm0-4v.74h2.47V8Zm0-2v.74h2.47V6.08Zm0,5.91v.75h2.47V12Zm0-4v.74h2.47V8Zm0-2v.74h2.47V6.08Zm0,0v.74h2.47V6.08Zm0,2v.74h2.47V8Zm0,4v.75h2.47V12Zm0-5.91v.74h2.47V6.08Zm0,2v.74h2.47V8Zm0,4v.75h2.47V12Zm0-5.91v.74h2.47V6.08Zm0,2v.74h2.47V8Zm0,4v.75h2.47V12Zm0-5.91v.74h2.47V6.08Zm0,2v.74h2.47V8Zm0,4v.75h2.47V12Zm0-5.91v.74h2.47V6.08Zm0,2v.74h2.47V8Zm0,4v.75h2.47V12Zm0-5.91v.74h2.47V6.08Zm0,2v.74h2.47V8Zm0,4v.75h2.47V12Zm-1-6.91v8.63H14.2V5.08ZM13.71,13a.25.25,0,0,1-.26.26H10.5a.26.26,0,0,1-.26-.26V11.74a.26.26,0,0,1,.26-.26h2.95a.26.26,0,0,1,.26.26Zm0-2a.25.25,0,0,1-.26.26H10.5a.26.26,0,0,1-.26-.26V9.76a.26.26,0,0,1,.26-.26h2.95a.26.26,0,0,1,.26.26Zm0-2a.25.25,0,0,1-.26.26H10.5A.26.26,0,0,1,10.24,9V7.78a.26.26,0,0,1,.26-.25h2.95a.26.26,0,0,1,.26.25Zm0-1.95a.24.24,0,0,1-.26.25H10.5a.26.26,0,0,1-.26-.25V5.82a.26.26,0,0,1,.26-.25h2.95a.26.26,0,0,1,.26.25Zm-3,5.68h2.47V12H10.75Zm0-4h2.47V8H10.75Zm0-2h2.47V6.08H10.75Zm0,5.17v.75h2.47V12Zm0-4v.74h2.47V8Zm0-2v.74h2.47V6.08Zm0,5.91v.75h2.47V12Zm0-4v.74h2.47V8Zm0-2v.74h2.47V6.08Zm0,5.91v.75h2.47V12Zm0-4v.74h2.47V8Zm0-2v.74h2.47V6.08Zm0,5.91v.75h2.47V12Zm0-4v.74h2.47V8Zm0-2v.74h2.47V6.08Zm0,0v.74h2.47V6.08Zm0,2v.74h2.47V8Zm0,4v.75h2.47V12Zm0,0v.75h2.47V12Zm0-4v.74h2.47V8Zm0-2v.74h2.47V6.08Zm.23-2v.49h2V4.1ZM4.58,10v.75H7.05V10Zm0,0v.75H7.05V10Zm-1-4.93v8.63H8V5.08Zm4,7.89a.28.28,0,0,1-.25.26h-3A.26.26,0,0,1,4.09,13V11.74a.26.26,0,0,1,.26-.26h3a.26.26,0,0,1,.25.26Zm0-2a.28.28,0,0,1-.25.26h-3A.26.26,0,0,1,4.09,11V9.76a.26.26,0,0,1,.26-.26h3a.26.26,0,0,1,.25.26ZM7.31,9.27h-3a.26.26,0,1,1,0-.51h3A.26.26,0,0,1,7.56,9,.28.28,0,0,1,7.31,9.27Zm0-.72h-3a.26.26,0,0,1-.26-.26A.26.26,0,0,1,4.35,8h3a.25.25,0,0,1,.25.25A.3.3,0,0,1,7.31,8.55Zm0-.75h-3a.26.26,0,0,1-.26-.25.26.26,0,0,1,.26-.26h3a.26.26,0,0,1,.25.26A.25.25,0,0,1,7.31,7.8Zm0-.74h-3a.26.26,0,0,1-.26-.26.26.26,0,0,1,.26-.25h3a.25.25,0,0,1,.25.25A.28.28,0,0,1,7.31,7.06ZM4.58,12.74H7.05V12H4.58Zm0-2H7.05V10H4.58ZM4.84,4.1v.49h2V4.1ZM11,4.1v.49h2V4.1Zm-.23,2v.74h2.47V6.08Zm0,2v.74h2.47V8Zm0,4v.75h2.47V12Zm0-5.91v.74h2.47V6.08Zm0,2v.74h2.47V8Zm0,4v.75h2.47V12Zm0-5.91v.74h2.47V6.08Zm0,2v.74h2.47V8Zm0,4v.75h2.47V12Zm0-5.91v.74h2.47V6.08Zm0,2v.74h2.47V8Zm0,4v.75h2.47V12Zm0-5.91v.74h2.47V6.08Zm0,2v.74h2.47V8Zm0,4v.75h2.47V12Zm0-5.91v.74h2.47V6.08Zm0,2v.74h2.47V8Zm0,4v.75h2.47V12Zm0-5.91v.74h2.47V6.08Zm0,2v.74h2.47V8Zm0,4v.75h2.47V12Zm0-5.91v.74h2.47V6.08Zm0,2v.74h2.47V8Zm0,4v.75h2.47V12Zm-1-6.91v8.63H14.2V5.08ZM13.71,13a.25.25,0,0,1-.26.26H10.5a.26.26,0,0,1-.26-.26V11.74a.26.26,0,0,1,.26-.26h2.95a.26.26,0,0,1,.26.26Zm0-2a.25.25,0,0,1-.26.26H10.5a.26.26,0,0,1-.26-.26V9.76a.26.26,0,0,1,.26-.26h2.95a.26.26,0,0,1,.26.26Zm0-2a.25.25,0,0,1-.26.26H10.5A.26.26,0,0,1,10.24,9V7.78a.26.26,0,0,1,.26-.25h2.95a.26.26,0,0,1,.26.25Zm0-1.95a.24.24,0,0,1-.26.25H10.5a.26.26,0,0,1-.26-.25V5.82a.26.26,0,0,1,.26-.25h2.95a.26.26,0,0,1,.26.25Zm-3,5.68h2.47V12H10.75Zm0-4h2.47V8H10.75Zm0-2h2.47V6.08H10.75Zm0,5.17v.75h2.47V12Zm0-4v.74h2.47V8Zm0-2v.74h2.47V6.08Zm0,5.91v.75h2.47V12Zm0-4v.74h2.47V8Zm0-2v.74h2.47V6.08Zm0,5.91v.75h2.47V12Zm0-4v.74h2.47V8Zm0-2v.74h2.47V6.08Zm0,5.91v.75h2.47V12Zm0-4v.74h2.47V8Zm0-2v.74h2.47V6.08Zm0,5.91v.75h2.47V12Zm0-4v.74h2.47V8Zm0-2v.74h2.47V6.08Zm0,5.91v.75h2.47V12Zm0-4v.74h2.47V8Zm0-2v.74h2.47V6.08Zm0,0v.74h2.47V6.08Zm0,2v.74h2.47V8Zm0,4v.75h2.47V12Zm0-5.91v.74h2.47V6.08Zm0,2v.74h2.47V8Zm0,4v.75h2.47V12Zm0-5.91v.74h2.47V6.08Zm0,2v.74h2.47V8Zm0,4v.75h2.47V12Zm0-5.91v.74h2.47V6.08Zm0,2v.74h2.47V8Zm0,4v.75h2.47V12Zm0-5.91v.74h2.47V6.08Zm0,2v.74h2.47V8Zm0,4v.75h2.47V12Zm0-5.91v.74h2.47V6.08Zm0,2v.74h2.47V8Zm0,4v.75h2.47V12Zm0-5.91v.74h2.47V6.08Zm0,2v.74h2.47V8Zm0,4v.75h2.47V12Zm0-5.91v.74h2.47V6.08Zm0,2v.74h2.47V8Zm0,4v.75h2.47V12Zm-1-6.91v8.63H14.2V5.08ZM13.71,13a.25.25,0,0,1-.26.26H10.5a.26.26,0,0,1-.26-.26V11.74a.26.26,0,0,1,.26-.26h2.95a.26.26,0,0,1,.26.26Zm0-2a.25.25,0,0,1-.26.26H10.5a.26.26,0,0,1-.26-.26V9.76a.26.26,0,0,1,.26-.26h2.95a.26.26,0,0,1,.26.26Zm0-2a.25.25,0,0,1-.26.26H10.5A.26.26,0,0,1,10.24,9V7.78a.26.26,0,0,1,.26-.25h2.95a.26.26,0,0,1,.26.25Zm0-1.95a.24.24,0,0,1-.26.25H10.5a.26.26,0,0,1-.26-.25V5.82a.26.26,0,0,1,.26-.25h2.95a.26.26,0,0,1,.26.25Zm-3,5.68h2.47V12H10.75Zm0-4h2.47V8H10.75Zm0-2h2.47V6.08H10.75Zm0,5.17v.75h2.47V12Zm0-4v.74h2.47V8Zm0-2v.74h2.47V6.08Zm0,5.91v.75h2.47V12Zm0-4v.74h2.47V8Zm0-2v.74h2.47V6.08Zm0,5.91v.75h2.47V12Zm0-4v.74h2.47V8Zm0-2v.74h2.47V6.08Zm0,5.91v.75h2.47V12Zm0-4v.74h2.47V8Zm0-2v.74h2.47V6.08Zm0,5.91v.75h2.47V12Zm0-4v.74h2.47V8Zm0-2v.74h2.47V6.08Zm0,5.91v.75h2.47V12Zm0-4v.74h2.47V8Zm0-2v.74h2.47V6.08Zm0,0v.74h2.47V6.08Zm0,2v.74h2.47V8Zm0,4v.75h2.47V12Zm0,0v.75h2.47V12Zm0-4v.74h2.47V8Zm0-2v.74h2.47V6.08Zm.23-2v.49h2V4.1Zm0,0v.49h2V4.1Zm-.23,2v.74h2.47V6.08Zm0,2v.74h2.47V8Zm0,4v.75h2.47V12Zm0-5.91v.74h2.47V6.08Zm0,2v.74h2.47V8Zm0,4v.75h2.47V12Zm0-5.91v.74h2.47V6.08Zm0,2v.74h2.47V8Zm0,4v.75h2.47V12Zm0-5.91v.74h2.47V6.08Zm0,2v.74h2.47V8Zm0,4v.75h2.47V12Zm0-5.91v.74h2.47V6.08Zm0,2v.74h2.47V8Zm0,4v.75h2.47V12Zm0-5.91v.74h2.47V6.08Zm0,2v.74h2.47V8Zm0,4v.75h2.47V12Zm0-5.91v.74h2.47V6.08Zm0,2v.74h2.47V8Zm0,4v.75h2.47V12Zm0-5.91v.74h2.47V6.08Zm0,2v.74h2.47V8Zm0,4v.75h2.47V12Zm0-5.91v.74h2.47V6.08Zm0,2v.74h2.47V8Zm0,4v.75h2.47V12Zm0-5.91v.74h2.47V6.08Zm0,2v.74h2.47V8Zm0,4v.75h2.47V12Zm-1-6.91v8.63H14.2V5.08ZM13.71,13a.25.25,0,0,1-.26.26H10.5a.26.26,0,0,1-.26-.26V11.74a.26.26,0,0,1,.26-.26h2.95a.26.26,0,0,1,.26.26Zm0-2a.25.25,0,0,1-.26.26H10.5a.26.26,0,0,1-.26-.26V9.76a.26.26,0,0,1,.26-.26h2.95a.26.26,0,0,1,.26.26Zm0-2a.25.25,0,0,1-.26.26H10.5A.26.26,0,0,1,10.24,9V7.78a.26.26,0,0,1,.26-.25h2.95a.26.26,0,0,1,.26.25Zm0-1.95a.24.24,0,0,1-.26.25H10.5a.26.26,0,0,1-.26-.25V5.82a.26.26,0,0,1,.26-.25h2.95a.26.26,0,0,1,.26.25Zm-3,5.68h2.47V12H10.75Zm0-4h2.47V8H10.75Zm0-2h2.47V6.08H10.75Zm0,5.17v.75h2.47V12Zm0-4v.74h2.47V8Zm0-2v.74h2.47V6.08Zm0,5.91v.75h2.47V12Zm0-4v.74h2.47V8Zm0-2v.74h2.47V6.08Zm0,5.91v.75h2.47V12Zm0-4v.74h2.47V8Zm0-2v.74h2.47V6.08Zm0,5.91v.75h2.47V12Zm0-4v.74h2.47V8Zm0-2v.74h2.47V6.08Zm0,5.91v.75h2.47V12Zm0-4v.74h2.47V8Zm0-2v.74h2.47V6.08Zm0,5.91v.75h2.47V12Zm0-4v.74h2.47V8Zm0-2v.74h2.47V6.08Zm0,5.91v.75h2.47V12Zm0-4v.74h2.47V8Zm0-2v.74h2.47V6.08Zm0,5.91v.75h2.47V12Zm0-4v.74h2.47V8Zm0-2v.74h2.47V6.08Zm0,0v.74h2.47V6.08Zm0,2v.74h2.47V8Zm0,4v.75h2.47V12Zm0-5.91v.74h2.47V6.08Zm0,2v.74h2.47V8Zm0,4v.75h2.47V12Zm0-5.91v.74h2.47V6.08Zm0,2v.74h2.47V8Zm0,4v.75h2.47V12Zm0-5.91v.74h2.47V6.08Zm0,2v.74h2.47V8Zm0,4v.75h2.47V12Zm0-5.91v.74h2.47V6.08Zm0,2v.74h2.47V8Zm0,4v.75h2.47V12Zm0-5.91v.74h2.47V6.08Zm0,2v.74h2.47V8Zm0,4v.75h2.47V12Zm0-5.91v.74h2.47V6.08Zm0,2v.74h2.47V8Zm0,4v.75h2.47V12Zm0-5.91v.74h2.47V6.08Zm0,2v.74h2.47V8Zm0,4v.75h2.47V12Zm0-5.91v.74h2.47V6.08Zm0,2v.74h2.47V8Zm0,4v.75h2.47V12Zm0-5.91v.74h2.47V6.08Zm0,2v.74h2.47V8Zm0,4v.75h2.47V12Zm-1-6.91v8.63H14.2V5.08ZM13.71,13a.25.25,0,0,1-.26.26H10.5a.26.26,0,0,1-.26-.26V11.74a.26.26,0,0,1,.26-.26h2.95a.26.26,0,0,1,.26.26Zm0-2a.25.25,0,0,1-.26.26H10.5a.26.26,0,0,1-.26-.26V9.76a.26.26,0,0,1,.26-.26h2.95a.26.26,0,0,1,.26.26Zm0-2a.25.25,0,0,1-.26.26H10.5A.26.26,0,0,1,10.24,9V7.78a.26.26,0,0,1,.26-.25h2.95a.26.26,0,0,1,.26.25Zm0-1.95a.24.24,0,0,1-.26.25H10.5a.26.26,0,0,1-.26-.25V5.82a.26.26,0,0,1,.26-.25h2.95a.26.26,0,0,1,.26.25Zm-3,5.68h2.47V12H10.75Zm0-4h2.47V8H10.75Zm0-2h2.47V6.08H10.75Zm0,5.17v.75h2.47V12Zm0-4v.74h2.47V8Zm0-2v.74h2.47V6.08Zm0,5.91v.75h2.47V12Zm0-4v.74h2.47V8Zm0-2v.74h2.47V6.08Zm0,5.91v.75h2.47V12Zm0-4v.74h2.47V8Zm0-2v.74h2.47V6.08Zm0,5.91v.75h2.47V12Zm0-4v.74h2.47V8Zm0-2v.74h2.47V6.08Zm0,5.91v.75h2.47V12Zm0-4v.74h2.47V8Zm0-2v.74h2.47V6.08Zm0,5.91v.75h2.47V12Zm0-4v.74h2.47V8Zm0-2v.74h2.47V6.08Zm0,5.91v.75h2.47V12Zm0-4v.74h2.47V8Zm0-2v.74h2.47V6.08Zm0,5.91v.75h2.47V12Zm0-4v.74h2.47V8Zm0-2v.74h2.47V6.08Zm0,5.91v.75h2.47V12Zm0-4v.74h2.47V8Zm0-2v.74h2.47V6.08Zm0,5.91v.75h2.47V12Zm0-4v.74h2.47V8Zm0-2v.74h2.47V6.08Zm0,0v.74h2.47V6.08Zm0,2v.74h2.47V8Zm0,4v.75h2.47V12Zm0-5.91v.74h2.47V6.08Zm0,2v.74h2.47V8Zm0,4v.75h2.47V12Zm0-5.91v.74h2.47V6.08Zm0,2v.74h2.47V8Zm0,4v.75h2.47V12Zm0-5.91v.74h2.47V6.08Zm0,2v.74h2.47V8Zm0,4v.75h2.47V12Zm0-5.91v.74h2.47V6.08Zm0,2v.74h2.47V8Zm0,4v.75h2.47V12Zm0-5.91v.74h2.47V6.08Zm0,2v.74h2.47V8Zm0,4v.75h2.47V12Zm0-5.91v.74h2.47V6.08Zm0,2v.74h2.47V8Zm0,4v.75h2.47V12Zm0-5.91v.74h2.47V6.08Zm0,2v.74h2.47V8Zm0,4v.75h2.47V12Zm0-5.91v.74h2.47V6.08Zm0,2v.74h2.47V8Zm0,4v.75h2.47V12Zm0-5.91v.74h2.47V6.08Zm0,2v.74h2.47V8Zm0,4v.75h2.47V12Zm0-5.91v.74h2.47V6.08Zm0,2v.74h2.47V8Zm0,4v.75h2.47V12Zm0-5.91v.74h2.47V6.08Zm0,2v.74h2.47V8Zm0,4v.75h2.47V12Zm-1-6.91v8.63H14.2V5.08ZM13.71,13a.25.25,0,0,1-.26.26H10.5a.26.26,0,0,1-.26-.26V11.74a.26.26,0,0,1,.26-.26h2.95a.26.26,0,0,1,.26.26Zm0-2a.25.25,0,0,1-.26.26H10.5a.26.26,0,0,1-.26-.26V9.76a.26.26,0,0,1,.26-.26h2.95a.26.26,0,0,1,.26.26Zm0-2a.25.25,0,0,1-.26.26H10.5A.26.26,0,0,1,10.24,9V7.78a.26.26,0,0,1,.26-.25h2.95a.26.26,0,0,1,.26.25Zm0-1.95a.24.24,0,0,1-.26.25H10.5a.26.26,0,0,1-.26-.25V5.82a.26.26,0,0,1,.26-.25h2.95a.26.26,0,0,1,.26.25Zm-3,5.68h2.47V12H10.75Zm0-4h2.47V8H10.75Zm0-2h2.47V6.08H10.75Zm0,5.17v.75h2.47V12Zm0-4v.74h2.47V8Zm0-2v.74h2.47V6.08Zm0,5.91v.75h2.47V12Zm0-4v.74h2.47V8Zm0-2v.74h2.47V6.08Zm0,5.91v.75h2.47V12Zm0-4v.74h2.47V8Zm0-2v.74h2.47V6.08Zm0,5.91v.75h2.47V12Zm0-4v.74h2.47V8Zm0-2v.74h2.47V6.08Zm0,5.91v.75h2.47V12Zm0-4v.74h2.47V8Zm0-2v.74h2.47V6.08Zm0,5.91v.75h2.47V12Zm0-4v.74h2.47V8Zm0-2v.74h2.47V6.08Zm0,5.91v.75h2.47V12Zm0-4v.74h2.47V8Zm0-2v.74h2.47V6.08Zm0,5.91v.75h2.47V12Zm0-4v.74h2.47V8Zm0-2v.74h2.47V6.08Zm0,5.91v.75h2.47V12Zm0-4v.74h2.47V8Zm0-2v.74h2.47V6.08Zm0,5.91v.75h2.47V12Zm0-4v.74h2.47V8Zm0-2v.74h2.47V6.08Zm0,5.91v.75h2.47V12Zm0-4v.74h2.47V8Zm0,4v.75h2.47V12Zm0-4v.74h2.47V8Zm0,4v.75h2.47V12Zm0,0v.75h2.47V12Zm0-5.91v.74h2.47V6.08Zm0,2v.74h2.47V8Zm0,4v.75h2.47V12Zm0-5.91v.74h2.47V6.08Zm0,2v.74h2.47V8Zm0,4v.75h2.47V12Zm0-5.91v.74h2.47V6.08Zm0,2v.74h2.47V8Zm0,4v.75h2.47V12Zm0-5.91v.74h2.47V6.08Zm0,2v.74h2.47V8Zm0,4v.75h2.47V12Zm0-5.91v.74h2.47V6.08Zm0,2v.74h2.47V8Zm0,4v.75h2.47V12Zm0-5.91v.74h2.47V6.08Zm0,2v.74h2.47V8Zm0,4v.75h2.47V12Zm0-5.91v.74h2.47V6.08Zm0,2v.74h2.47V8Zm0,4v.75h2.47V12Zm0-5.91v.74h2.47V6.08Zm0,2v.74h2.47V8Zm0,4v.75h2.47V12Zm0-5.91v.74h2.47V6.08Zm0,2v.74h2.47V8Zm0,4v.75h2.47V12Zm0-5.91v.74h2.47V6.08Zm0,2v.74h2.47V8Zm0,4v.75h2.47V12Zm0-5.91v.74h2.47V6.08Zm0,2v.74h2.47V8Zm0,4v.75h2.47V12Zm0-5.91v.74h2.47V6.08Zm0,2v.74h2.47V8Zm0,4v.75h2.47V12Zm-1-6.91v8.63H14.2V5.08ZM13.71,13a.25.25,0,0,1-.26.26H10.5a.26.26,0,0,1-.26-.26V11.74a.26.26,0,0,1,.26-.26h2.95a.26.26,0,0,1,.26.26Zm0-2a.25.25,0,0,1-.26.26H10.5a.26.26,0,0,1-.26-.26V9.76a.26.26,0,0,1,.26-.26h2.95a.26.26,0,0,1,.26.26Zm0-2a.25.25,0,0,1-.26.26H10.5A.26.26,0,0,1,10.24,9V7.78a.26.26,0,0,1,.26-.25h2.95a.26.26,0,0,1,.26.25Zm0-1.95a.24.24,0,0,1-.26.25H10.5a.26.26,0,0,1-.26-.25V5.82a.26.26,0,0,1,.26-.25h2.95a.26.26,0,0,1,.26.25Zm-3,5.68h2.47V12H10.75Zm0-4h2.47V8H10.75Zm0-2h2.47V6.08H10.75Zm0,5.17v.75h2.47V12Zm0-4v.74h2.47V8Zm0-2v.74h2.47V6.08Zm0,5.91v.75h2.47V12Zm0-4v.74h2.47V8Zm0-2v.74h2.47V6.08Zm0,5.91v.75h2.47V12Zm0-4v.74h2.47V8Zm0-2v.74h2.47V6.08Zm0,5.91v.75h2.47V12Zm0-4v.74h2.47V8Zm0-2v.74h2.47V6.08Zm0,5.91v.75h2.47V12Zm0-4v.74h2.47V8Zm0-2v.74h2.47V6.08Zm0,5.91v.75h2.47V12Zm0-4v.74h2.47V8Zm0-2v.74h2.47V6.08Zm0,5.91v.75h2.47V12Zm0-4v.74h2.47V8Zm0-2v.74h2.47V6.08Zm0,5.91v.75h2.47V12Zm0-4v.74h2.47V8Zm0-2v.74h2.47V6.08Zm0,5.91v.75h2.47V12Zm0-4v.74h2.47V8Zm0-2v.74h2.47V6.08Zm0,5.91v.75h2.47V12Zm0-4v.74h2.47V8Zm0-2v.74h2.47V6.08Zm0,5.91v.75h2.47V12Zm0-4v.74h2.47V8Zm0,4v.75h2.47V12Zm0-4v.74h2.47V8Z"/></g></g></svg>