<svg xmlns="http://www.w3.org/2000/svg" viewBox="0 0 17.8 17.75"><defs><style>.cls-1{fill:#020b34;}</style></defs><g id="Layer_2" data-name="Layer 2"><g id="Layer_1-2" data-name="Layer 1"><rect class="cls-1" x="4.84" y="4.1" width="1.98" height="0.49"/><path class="cls-1" d="M4.58,10v.75H7.05V10Zm0,2v.75H7.05V12Zm0-2v.75H7.05V10Zm0,2v.75H7.05V12Zm0-2v.75H7.05V10Zm0,2v.75H7.05V12Zm0-2v.75H7.05V10Zm0,2v.75H7.05V12Zm0-2v.75H7.05V10Zm0,2v.75H7.05V12Zm0-2v.75H7.05V10Zm0,2v.75H7.05V12Zm0-2v.75H7.05V10Zm0,2v.75H7.05V12Zm0-2v.75H7.05V10Zm0,2v.75H7.05V12Zm0-2v.75H7.05V10Zm0,2v.75H7.05V12Zm0-2v.75H7.05V10Zm0,2v.75H7.05V12Zm-1-6.91v8.63H8V5.08Zm4,7.89a.28.28,0,0,1-.25.26h-3A.26.26,0,0,1,4.09,13V11.74a.26.26,0,0,1,.26-.26h3a.26.26,0,0,1,.25.26Zm0-2a.28.28,0,0,1-.25.26h-3A.26.26,0,0,1,4.09,11V9.76a.26.26,0,0,1,.26-.26h3a.26.26,0,0,1,.25.26ZM7.31,9.27h-3a.26.26,0,0,1,0-.51h3A.26.26,0,0,1,7.56,9,.28.28,0,0,1,7.31,9.27Zm0-.72h-3a.26.26,0,0,1,0-.51h3a.25.25,0,0,1,.25.25A.3.3,0,0,1,7.31,8.55Zm-3-1.26h3a.26.26,0,0,1,0,.51h-3A.26.26,0,0,1,4.35,7.29Zm3-.23h-3a.26.26,0,0,1,0-.51h3a.25.25,0,0,1,.25.25A.28.28,0,0,1,7.31,7.06ZM4.58,12.74H7.05V12H4.58Zm0-2H7.05V10H4.58Zm0,1.23v.75H7.05V12Zm0-2v.75H7.05V10Zm0,2v.75H7.05V12Zm0-2v.75H7.05V10Zm0,2v.75H7.05V12Zm0-2v.75H7.05V10Zm0,2v.75H7.05V12Zm0-2v.75H7.05V10Zm0,2v.75H7.05V12Zm0-2v.75H7.05V10Zm0,2v.75H7.05V12Zm0-2v.75H7.05V10Zm0,2v.75H7.05V12Zm0-2v.75H7.05V10Zm0,2v.75H7.05V12Zm0-2v.75H7.05V10Zm0,0v.75H7.05V10Zm0,0v.75H7.05V10Z"/><path class="cls-1" d="M11,4.1v.49h2V4.1Zm-.23,2v.74h2.47V6.08Zm0,0v.74h2.47V6.08Zm0,0v.74h2.47V6.08Zm0,2v.74h2.47V8Zm0-2v.74h2.47V6.08Zm0,2v.74h2.47V8Zm-1-3v8.63H14.2V5.08ZM13.71,13a.25.25,0,0,1-.26.26H10.5a.26.26,0,0,1-.26-.26V11.74a.26.26,0,0,1,.26-.26h2.95a.26.26,0,0,1,.26.26Zm0-2a.25.25,0,0,1-.26.26H10.5a.26.26,0,0,1-.26-.26V9.76a.26.26,0,0,1,.26-.26h2.95a.26.26,0,0,1,.26.26Zm0-2a.25.25,0,0,1-.26.26H10.5A.26.26,0,0,1,10.24,9V7.78a.26.26,0,0,1,.26-.25h2.95a.26.26,0,0,1,.26.25Zm0-1.95a.24.24,0,0,1-.26.25H10.5a.26.26,0,0,1-.26-.25V5.82a.26.26,0,0,1,.26-.25h2.95a.26.26,0,0,1,.26.25Zm-3,5.68h2.47V12H10.75Zm0-4h2.47V8H10.75Zm0-2h2.47V6.08H10.75Zm0,1.22v.74h2.47V8Zm0-2v.74h2.47V6.08Zm0,2v.74h2.47V8Zm0-2v.74h2.47V6.08Zm0,0v.74h2.47V6.08Zm0,2v.74h2.47V8Zm0-2v.74h2.47V6.08Zm0,2v.74h2.47V8Zm-1-3v8.63H14.2V5.08ZM13.71,13a.25.25,0,0,1-.26.26H10.5a.26.26,0,0,1-.26-.26V11.74a.26.26,0,0,1,.26-.26h2.95a.26.26,0,0,1,.26.26Zm0-2a.25.25,0,0,1-.26.26H10.5a.26.26,0,0,1-.26-.26V9.76a.26.26,0,0,1,.26-.26h2.95a.26.26,0,0,1,.26.26Zm0-2a.25.25,0,0,1-.26.26H10.5A.26.26,0,0,1,10.24,9V7.78a.26.26,0,0,1,.26-.25h2.95a.26.26,0,0,1,.26.25Zm0-1.95a.24.24,0,0,1-.26.25H10.5a.26.26,0,0,1-.26-.25V5.82a.26.26,0,0,1,.26-.25h2.95a.26.26,0,0,1,.26.25Zm-3,5.68h2.47V12H10.75Zm0-4h2.47V8H10.75Zm0-2h2.47V6.08H10.75Zm0,1.22v.74h2.47V8Zm0-2v.74h2.47V6.08Zm0,2v.74h2.47V8Zm0-2v.74h2.47V6.08Zm.23-2v.49h2V4.1Zm0,0v.49h2V4.1Zm-.23,2v.74h2.47V6.08Zm0,2v.74h2.47V8Zm0,0v.74h2.47V8Zm0-2v.74h2.47V6.08Zm-1-1v8.63H14.2V5.08ZM13.71,13a.25.25,0,0,1-.26.26H10.5a.26.26,0,0,1-.26-.26V11.74a.26.26,0,0,1,.26-.26h2.95a.26.26,0,0,1,.26.26Zm0-2a.25.25,0,0,1-.26.26H10.5a.26.26,0,0,1-.26-.26V9.76a.26.26,0,0,1,.26-.26h2.95a.26.26,0,0,1,.26.26Zm0-2a.25.25,0,0,1-.26.26H10.5A.26.26,0,0,1,10.24,9V7.78a.26.26,0,0,1,.26-.25h2.95a.26.26,0,0,1,.26.25Zm0-1.95a.24.24,0,0,1-.26.25H10.5a.26.26,0,0,1-.26-.25V5.82a.26.26,0,0,1,.26-.25h2.95a.26.26,0,0,1,.26.25Zm-3,5.68h2.47V12H10.75Zm0-4h2.47V8H10.75Zm0-2h2.47V6.08H10.75Zm-1-1.74v8.63H14.2V5.08ZM13.71,13a.25.25,0,0,1-.26.26H10.5a.26.26,0,0,1-.26-.26V11.74a.26.26,0,0,1,.26-.26h2.95a.26.26,0,0,1,.26.26Zm0-2a.25.25,0,0,1-.26.26H10.5a.26.26,0,0,1-.26-.26V9.76a.26.26,0,0,1,.26-.26h2.95a.26.26,0,0,1,.26.26Zm0-2a.25.25,0,0,1-.26.26H10.5A.26.26,0,0,1,10.24,9V7.78a.26.26,0,0,1,.26-.25h2.95a.26.26,0,0,1,.26.25Zm0-1.95a.24.24,0,0,1-.26.25H10.5a.26.26,0,0,1-.26-.25V5.82a.26.26,0,0,1,.26-.25h2.95a.26.26,0,0,1,.26.25Zm-3,5.68h2.47V12H10.75Zm0-4h2.47V8H10.75Zm0-2h2.47V6.08H10.75ZM13,4.1H11v.49h2ZM8.9,0A8.89,8.89,0,0,0,0,8.9c.47,11.81,17.34,11.8,17.8,0A8.89,8.89,0,0,0,8.9,0ZM8.54,14a.25.25,0,0,1-.26.23H3.35A.26.26,0,0,1,3.09,14V4.85c0-.41.7-.22,1.24-.26,0-.3-.14-1,.25-1H7.05c.41,0,.23.68.26,1,.53,0,1.24-.15,1.23.26Zm6.17,0a.27.27,0,0,1-.26.23H9.52A.26.26,0,0,1,9.26,14V4.85c0-.41.7-.22,1.24-.26,0-.3-.14-1,.25-1h2.47c.4,0,.22.7.25,1h1a.26.26,0,0,1,.26.26Zm-4.94-.26H14.2V5.08H9.77Zm.47-7.89a.26.26,0,0,1,.26-.25h2.95a.26.26,0,0,1,.26.25V7.06a.24.24,0,0,1-.26.25H10.5a.26.26,0,0,1-.26-.25Zm0,2a.26.26,0,0,1,.26-.25h2.95a.26.26,0,0,1,.26.25V9a.25.25,0,0,1-.26.26H10.5A.26.26,0,0,1,10.24,9Zm0,2a.26.26,0,0,1,.26-.26h2.95a.26.26,0,0,1,.26.26V11a.25.25,0,0,1-.26.26H10.5a.26.26,0,0,1-.26-.26Zm0,2a.26.26,0,0,1,.26-.26h2.95a.26.26,0,0,1,.26.26V13a.25.25,0,0,1-.26.26H10.5a.26.26,0,0,1-.26-.26Zm3,.25H10.75v.75h2.47Zm0-4H10.75v.74h2.47Zm0-2H10.75v.74h2.47ZM13,4.1H11v.49h2Zm-2,0v.49h2V4.1Zm-.23,2v.74h2.47V6.08Zm0,2v.74h2.47V8Zm0-2v.74h2.47V6.08Zm0,2v.74h2.47V8Zm-1-3v8.63H14.2V5.08ZM13.71,13a.25.25,0,0,1-.26.26H10.5a.26.26,0,0,1-.26-.26V11.74a.26.26,0,0,1,.26-.26h2.95a.26.26,0,0,1,.26.26Zm0-2a.25.25,0,0,1-.26.26H10.5a.26.26,0,0,1-.26-.26V9.76a.26.26,0,0,1,.26-.26h2.95a.26.26,0,0,1,.26.26Zm0-2a.25.25,0,0,1-.26.26H10.5A.26.26,0,0,1,10.24,9V7.78a.26.26,0,0,1,.26-.25h2.95a.26.26,0,0,1,.26.25Zm0-1.95a.24.24,0,0,1-.26.25H10.5a.26.26,0,0,1-.26-.25V5.82a.26.26,0,0,1,.26-.25h2.95a.26.26,0,0,1,.26.25Zm-3,5.68h2.47V12H10.75Zm0-4h2.47V8H10.75Zm0-2h2.47V6.08H10.75Zm0-.74v.74h2.47V6.08Zm0,2v.74h2.47V8Zm0-2v.74h2.47V6.08Zm0,2v.74h2.47V8Zm-1-3v8.63H14.2V5.08ZM13.71,13a.25.25,0,0,1-.26.26H10.5a.26.26,0,0,1-.26-.26V11.74a.26.26,0,0,1,.26-.26h2.95a.26.26,0,0,1,.26.26Zm0-2a.25.25,0,0,1-.26.26H10.5a.26.26,0,0,1-.26-.26V9.76a.26.26,0,0,1,.26-.26h2.95a.26.26,0,0,1,.26.26Zm0-2a.25.25,0,0,1-.26.26H10.5A.26.26,0,0,1,10.24,9V7.78a.26.26,0,0,1,.26-.25h2.95a.26.26,0,0,1,.26.25Zm0-1.95a.24.24,0,0,1-.26.25H10.5a.26.26,0,0,1-.26-.25V5.82a.26.26,0,0,1,.26-.25h2.95a.26.26,0,0,1,.26.25Zm-3,5.68h2.47V12H10.75Zm0-4h2.47V8H10.75Zm0-2h2.47V6.08H10.75Zm0-.74v.74h2.47V6.08Zm0,2v.74h2.47V8Zm0,0v.74h2.47V8Zm0-2v.74h2.47V6.08Zm.23-2v.49h2V4.1Zm0,0v.49h2V4.1Zm-.23,2v.74h2.47V6.08Zm0,0v.74h2.47V6.08Zm0,0v.74h2.47V6.08Zm0,2v.74h2.47V8Zm0-2v.74h2.47V6.08Zm0,2v.74h2.47V8Zm-1-3v8.63H14.2V5.08ZM13.71,13a.25.25,0,0,1-.26.26H10.5a.26.26,0,0,1-.26-.26V11.74a.26.26,0,0,1,.26-.26h2.95a.26.26,0,0,1,.26.26Zm0-2a.25.25,0,0,1-.26.26H10.5a.26.26,0,0,1-.26-.26V9.76a.26.26,0,0,1,.26-.26h2.95a.26.26,0,0,1,.26.26Zm0-2a.25.25,0,0,1-.26.26H10.5A.26.26,0,0,1,10.24,9V7.78a.26.26,0,0,1,.26-.25h2.95a.26.26,0,0,1,.26.25Zm0-1.95a.24.24,0,0,1-.26.25H10.5a.26.26,0,0,1-.26-.25V5.82a.26.26,0,0,1,.26-.25h2.95a.26.26,0,0,1,.26.25Zm-3,5.68h2.47V12H10.75Zm0-4h2.47V8H10.75Zm0-2h2.47V6.08H10.75Zm0,1.22v.74h2.47V8Zm0-2v.74h2.47V6.08Zm0,2v.74h2.47V8Zm0-2v.74h2.47V6.08Zm0,0v.74h2.47V6.08Zm0,0v.74h2.47V6.08Zm0,0v.74h2.47V6.08Zm0,2v.74h2.47V8Zm0-2v.74h2.47V6.08Zm0,2v.74h2.47V8Zm-1-3v8.63H14.2V5.08ZM13.71,13a.25.25,0,0,1-.26.26H10.5a.26.26,0,0,1-.26-.26V11.74a.26.26,0,0,1,.26-.26h2.95a.26.26,0,0,1,.26.26Zm0-2a.25.25,0,0,1-.26.26H10.5a.26.26,0,0,1-.26-.26V9.76a.26.26,0,0,1,.26-.26h2.95a.26.26,0,0,1,.26.26Zm0-2a.25.25,0,0,1-.26.26H10.5A.26.26,0,0,1,10.24,9V7.78a.26.26,0,0,1,.26-.25h2.95a.26.26,0,0,1,.26.25Zm0-1.95a.24.24,0,0,1-.26.25H10.5a.26.26,0,0,1-.26-.25V5.82a.26.26,0,0,1,.26-.25h2.95a.26.26,0,0,1,.26.25Zm-3,5.68h2.47V12H10.75Zm0-4h2.47V8H10.75Zm0-2h2.47V6.08H10.75Zm0,1.22v.74h2.47V8Zm0-2v.74h2.47V6.08Zm0,2v.74h2.47V8Zm0-2v.74h2.47V6.08Zm.23-2v.49h2V4.1Z"/><rect class="cls-1" x="4.84" y="4.1" width="1.98" height="0.49"/><path class="cls-1" d="M4.58,10v.75H7.05V10Zm0,2v.75H7.05V12Zm0-2v.75H7.05V10Zm0,2v.75H7.05V12Zm0-2v.75H7.05V10Zm0,2v.75H7.05V12Zm0-2v.75H7.05V10Zm0,2v.75H7.05V12Zm0-2v.75H7.05V10Zm0,2v.75H7.05V12Zm0-2v.75H7.05V10Zm0,2v.75H7.05V12Zm0-2v.75H7.05V10Zm0,2v.75H7.05V12Zm0-2v.75H7.05V10Zm0,2v.75H7.05V12Zm0-2v.75H7.05V10Zm0,2v.75H7.05V12Zm0-2v.75H7.05V10Zm0,2v.75H7.05V12Zm-1-6.91v8.63H8V5.08Zm4,7.89a.28.28,0,0,1-.25.26h-3A.26.26,0,0,1,4.09,13V11.74a.26.26,0,0,1,.26-.26h3a.26.26,0,0,1,.25.26Zm0-2a.28.28,0,0,1-.25.26h-3A.26.26,0,0,1,4.09,11V9.76a.26.26,0,0,1,.26-.26h3a.26.26,0,0,1,.25.26ZM7.31,9.27h-3a.26.26,0,0,1,0-.51h3A.26.26,0,0,1,7.56,9,.28.28,0,0,1,7.31,9.27Zm0-.72h-3a.26.26,0,0,1,0-.51h3a.25.25,0,0,1,.25.25A.3.3,0,0,1,7.31,8.55Zm-3-1.26h3a.26.26,0,0,1,0,.51h-3A.26.26,0,0,1,4.35,7.29Zm3-.23h-3a.26.26,0,0,1,0-.51h3a.25.25,0,0,1,.25.25A.28.28,0,0,1,7.31,7.06ZM4.58,12.74H7.05V12H4.58Zm0-2H7.05V10H4.58Zm0,1.23v.75H7.05V12Zm0-2v.75H7.05V10Zm0,2v.75H7.05V12Zm0-2v.75H7.05V10Zm0,2v.75H7.05V12Zm0-2v.75H7.05V10Zm0,2v.75H7.05V12Zm0-2v.75H7.05V10Zm0,2v.75H7.05V12Zm0-2v.75H7.05V10Zm0,2v.75H7.05V12Zm0-2v.75H7.05V10Zm0,2v.75H7.05V12Zm0-2v.75H7.05V10Zm0,2v.75H7.05V12Zm0-2v.75H7.05V10Zm0,0v.75H7.05V10Zm0,0v.75H7.05V10Z"/><rect class="cls-1" x="10.98" y="4.1" width="1.98" height="0.49"/><rect class="cls-1" x="10.75" y="6.08" width="2.47" height="0.74"/><path class="cls-1" d="M10.75,8v.74h2.47V8Zm0,0v.74h2.47V8Zm-1-3v8.63H14.2V5.08ZM13.71,13a.25.25,0,0,1-.26.26H10.5a.26.26,0,0,1-.26-.26V11.74a.26.26,0,0,1,.26-.26h2.95a.26.26,0,0,1,.26.26Zm0-2a.25.25,0,0,1-.26.26H10.5a.26.26,0,0,1-.26-.26V9.76a.26.26,0,0,1,.26-.26h2.95a.26.26,0,0,1,.26.26Zm0-2a.25.25,0,0,1-.26.26H10.5A.26.26,0,0,1,10.24,9V7.78a.26.26,0,0,1,.26-.25h2.95a.26.26,0,0,1,.26.25Zm0-1.95a.24.24,0,0,1-.26.25H10.5a.26.26,0,0,1-.26-.25V5.82a.26.26,0,0,1,.26-.25h2.95a.26.26,0,0,1,.26.25Zm-3,5.68h2.47V12H10.75Zm0-4h2.47V8H10.75Zm0-.74v.74h2.47V8Zm0,0v.74h2.47V8Z"/></g></g></svg>