<svg xmlns="http://www.w3.org/2000/svg" viewBox="0 0 26.5 26.5"><defs><style>.cls-1{fill:#cb9833;fill-rule:evenodd;}</style></defs><g id="Layer_2" data-name="Layer 2"><g id="Layer_1-2" data-name="Layer 1"><path class="cls-1" d="M6.34,25.08A9.92,9.92,0,0,1,8.18,20,15.06,15.06,0,0,1,10,18.61l-1-1.05-1-1a14.3,14.3,0,0,1-1.38,1.8,9.83,9.83,0,0,1-5.09,1.84c1,.53,3.48-.27,4.55.37.65,1.07-.16,3.61.37,4.55"/><path class="cls-1" d="M4.55,22a.85.85,0,1,1,1.2-1.2A.85.85,0,0,1,4.55,22"/><path class="cls-1" d="M9.77,0a9.85,9.85,0,0,1,2.3,4.9A10,10,0,0,1,12,6.07a7.62,7.62,0,0,1,2.58,0,10,10,0,0,1-.11-1.17A9.85,9.85,0,0,1,16.73,0c-1,.29-2.26,2.65-3.48,3C12,2.65,10.82.29,9.77,0"/><path class="cls-1" d="M13.25.94a.85.85,0,1,1-.85.85.85.85,0,0,1,.85-.85"/><path class="cls-1" d="M15.81,1.82A5.82,5.82,0,0,1,15.93,5a7.24,7.24,0,0,1-.67,1.14l.8.34.79.33a7.68,7.68,0,0,1,.35-1.27,5.7,5.7,0,0,1,2.34-2.12c-.63-.08-1.81.92-2.54.81-.58-.44-.7-2-1.19-2.38"/><path class="cls-1" d="M17.46,3.11a.5.5,0,0,1,.26.65.48.48,0,0,1-.64.26.49.49,0,0,1-.27-.64.5.5,0,0,1,.65-.27"/><path class="cls-1" d="M23.14,7A5.81,5.81,0,0,1,21,9.29a8,8,0,0,1-1.28.34l.33.79.32.8a8.69,8.69,0,0,1,1.15-.65,5.73,5.73,0,0,1,3.15.16c-.39-.5-1.93-.64-2.36-1.23-.1-.72.9-1.9.83-2.52"/><path class="cls-1" d="M23.4,9.06a.5.5,0,1,1-.65-.27.49.49,0,0,1,.65.27"/><path class="cls-1" d="M24.68,15.81a5.82,5.82,0,0,1-3.15.12,7.73,7.73,0,0,1-1.14-.67l-.33.8-.34.79A8.08,8.08,0,0,1,21,17.2a5.75,5.75,0,0,1,2.11,2.34c.08-.63-.91-1.81-.8-2.54.44-.58,2-.7,2.37-1.19"/><path class="cls-1" d="M23.39,17.46a.5.5,0,0,1-.65.26.48.48,0,0,1-.26-.64.5.5,0,0,1,.65-.27.5.5,0,0,1,.26.65"/><path class="cls-1" d="M19.53,23.14A5.77,5.77,0,0,1,17.21,21a8,8,0,0,1-.33-1.28l-.8.33-.8.32a8.76,8.76,0,0,1,.66,1.15,5.83,5.83,0,0,1-.17,3.15c.5-.39.64-1.93,1.23-2.36.72-.1,1.9.9,2.53.83"/><path class="cls-1" d="M17.44,23.4a.49.49,0,0,1-.64-.27.5.5,0,0,1,.27-.65.49.49,0,0,1,.64.27.49.49,0,0,1-.27.65"/><path class="cls-1" d="M10.7,24.68a5.72,5.72,0,0,1-.13-3.15,8.72,8.72,0,0,1,.67-1.14l-.8-.33-.79-.34A8.08,8.08,0,0,1,9.3,21,5.75,5.75,0,0,1,7,23.11c.63.08,1.82-.91,2.54-.8.58.44.7,2,1.2,2.37"/><path class="cls-1" d="M9,23.39a.5.5,0,0,1-.26-.65.48.48,0,0,1,.64-.26.49.49,0,1,1-.38.91"/><path class="cls-1" d="M3.36,19.53A5.77,5.77,0,0,1,5.5,17.21a8,8,0,0,1,1.28-.33l-.33-.8-.32-.8A8.76,8.76,0,0,1,5,15.94a5.83,5.83,0,0,1-3.15-.17c.39.5,1.93.64,2.37,1.23.1.72-.91,1.9-.84,2.53"/><path class="cls-1" d="M3.11,17.44a.48.48,0,0,1,.27-.64.49.49,0,0,1,.37.91.48.48,0,0,1-.64-.27"/><path class="cls-1" d="M1.82,10.7A5.72,5.72,0,0,1,5,10.57a8.11,8.11,0,0,1,1.14.67l.34-.8.33-.79A7.68,7.68,0,0,1,5.51,9.3,5.7,5.7,0,0,1,3.39,7c-.08.63.92,1.82.81,2.54-.44.58-2,.7-2.38,1.2"/><path class="cls-1" d="M3.11,9a.5.5,0,0,1,.65-.26.49.49,0,0,1-.38.91A.5.5,0,0,1,3.11,9"/><path class="cls-1" d="M7,3.36A5.81,5.81,0,0,1,9.29,5.5a8,8,0,0,1,.34,1.28l.79-.33.8-.32A8.69,8.69,0,0,1,10.57,5a5.73,5.73,0,0,1,.16-3.15c-.5.39-.64,1.93-1.23,2.37-.72.1-1.9-.91-2.52-.84"/><path class="cls-1" d="M9.06,3.11a.48.48,0,0,1,.64.27A.49.49,0,0,1,9.43,4a.49.49,0,0,1-.64-.27.49.49,0,0,1,.27-.64"/><path class="cls-1" d="M20.16,1.42a9.83,9.83,0,0,1-1.84,5.09,8.88,8.88,0,0,1-.91.75,7.57,7.57,0,0,1,1.83,1.83A8.88,8.88,0,0,1,20,8.18a9.92,9.92,0,0,1,5.09-1.84c-.94-.53-3.48.28-4.55-.37-.64-1.07.16-3.6-.37-4.55"/><path class="cls-1" d="M22,4.55a.85.85,0,0,1-1.2,1.2A.85.85,0,1,1,22,4.55"/><path class="cls-1" d="M26.5,9.77a9.85,9.85,0,0,1-4.9,2.3A10,10,0,0,1,20.43,12a7.62,7.62,0,0,1,0,2.58,10,10,0,0,1,1.17-.11,9.85,9.85,0,0,1,4.9,2.3c-.29-1-2.65-2.26-3-3.48.31-1.21,2.67-2.43,3-3.48"/><path class="cls-1" d="M25.56,13.25a.85.85,0,1,1-.85-.85.85.85,0,0,1,.85.85"/><path class="cls-1" d="M25.08,20.16A9.83,9.83,0,0,1,20,18.32a8.88,8.88,0,0,1-.75-.91,7.57,7.57,0,0,1-1.83,1.83,8.88,8.88,0,0,1,.91.75,9.83,9.83,0,0,1,1.84,5.09c.53-.94-.27-3.48.37-4.55,1.07-.64,3.61.16,4.55-.37"/><path class="cls-1" d="M22,22a.85.85,0,0,1-1.2,0,.85.85,0,1,1,1.2-1.2A.85.85,0,0,1,22,22"/><path class="cls-1" d="M16.73,26.5a9.85,9.85,0,0,1-2.3-4.9,10,10,0,0,1,.11-1.17,7.62,7.62,0,0,1-2.58,0,10,10,0,0,1,.11,1.17,9.85,9.85,0,0,1-2.3,4.9c1.05-.29,2.27-2.65,3.48-3,1.22.31,2.44,2.67,3.48,3"/><path class="cls-1" d="M13.25,25.56a.85.85,0,1,1,.85-.85.85.85,0,0,1-.85.85"/><path class="cls-1" d="M0,16.73a9.85,9.85,0,0,1,4.9-2.3,10,10,0,0,1,1.17.11,7.62,7.62,0,0,1,0-2.58,10,10,0,0,1-1.17.11A9.85,9.85,0,0,1,0,9.77C.29,10.82,2.65,12,3,13.25c-.31,1.22-2.67,2.44-3,3.48"/><path class="cls-1" d="M.94,13.25a.85.85,0,1,1,.85.85.85.85,0,0,1-.85-.85"/><path class="cls-1" d="M1.42,6.34A9.92,9.92,0,0,1,6.51,8.18a8.88,8.88,0,0,1,.75.91A7.57,7.57,0,0,1,9.09,7.26a8.88,8.88,0,0,1-.91-.75A9.92,9.92,0,0,1,6.34,1.42C5.81,2.37,6.62,4.9,6,6c-1.07.65-3.6-.16-4.55.37"/><path class="cls-1" d="M4.55,4.55a.83.83,0,0,1,1.2,0,.85.85,0,1,1-1.2,1.2.83.83,0,0,1,0-1.2"/><path class="cls-1" d="M13.25,6.16a7.1,7.1,0,1,1-7.09,7.09,7.09,7.09,0,0,1,7.09-7.09m0-.45a7.54,7.54,0,1,1-7.54,7.54A7.54,7.54,0,0,1,13.25,5.71Z"/><path class="cls-1" d="M11.68,20.33a7.27,7.27,0,0,1-5.54-5.67,3.57,3.57,0,0,1,3.41.21c2,1.43,2.27,1.92,2.48,3.74a3.09,3.09,0,0,1-.35,1.72"/><path class="cls-1" d="M6,12.6a7.27,7.27,0,0,1,4.6-6.11A3.88,3.88,0,0,1,11,8.57c-.25,1.3-1.38,1-1.3,2.6s.34,3.11-1,1.68A1.81,1.81,0,0,0,6,12.6"/><path class="cls-1" d="M13.25,6A7.24,7.24,0,0,1,20,10.61a.63.63,0,0,0-.45.6c-.06,1.43,0,2.15-1.59.72s-3.74.08-5.17-1-.51-2.31.08-3.23A3.61,3.61,0,0,0,13.22,6h0"/><path class="cls-1" d="M12.66,12.26s-1.13,1.16-.75,2.29,1.78,3.07,3.11,2.73,1.28-.14,1.44,1,2.44.67,1.77-1.47-1.85-2.52-.88-3.28-1.31-1.17-2.44-.29-1.2-1.7-2.25-1"/></g></g></svg>