<svg xmlns="http://www.w3.org/2000/svg" viewBox="0 0 26.47 26.46"><defs><style>.cls-1{isolation:isolate;}.cls-2{fill:#cb9833;}.cls-3{fill:#797d92;}.cls-4{fill:#eaeaea;}.cls-5{fill:#9195a7;}.cls-6{fill:#a6a9b8;}.cls-7{fill:#f7f7f7;}.cls-8{mix-blend-mode:multiply;}</style></defs><g class="cls-1"><g id="Layer_2" data-name="Layer 2"><g id="Layer_1-2" data-name="Layer 1"><path class="cls-2" d="M13.23,0A13.23,13.23,0,1,0,26.47,13.23,13.23,13.23,0,0,0,13.23,0Zm-2.9,11.31.17,0,4.26-.84h0l1.46.29a.76.76,0,0,0-.26,0l-4.27.85-1.47-.3ZM14.83,15l.08,0,.08,0h0l.05,0a.8.8,0,0,1,.21.15h0l0,0,0,0v0l0,.05a.76.76,0,0,1,.11.26.06.06,0,0,1,0,0h0a.22.22,0,0,0,0,.08h0V17H13.8v-.36l-1.14-.23v-.91L14.78,15ZM16,13l-4.27.85-1.47-.3h.1l.17,0,4.27-.84,1.46.29A.76.76,0,0,0,16,13Zm-.23-9.52.48.21-1,2.35-.49-.2ZM13,3.08h.53V5.63H13Zm-.25,4.67,3.51.7a.76.76,0,0,0-.26,0l-4,.79a.86.86,0,0,1,.72-1.5Zm-2-4.23,1,2.36-.49.2-1-2.35ZM8.35,5l1.8,1.81-.37.37L8,5.37Zm8.34,2.18-.37-.37L18.12,5l.37.38Z"/><path class="cls-3" d="M14.78,15l-2.12.42v.91L11,16l-.79-.16-.11,0h0l-.12-.05h0l0,0h0a.65.65,0,0,1-.18-.15l-.08-.1v0l-.06-.12v0a.65.65,0,0,1,0-.13.28.28,0,0,1,0-.09,0,0,0,0,1,0,0V15a.25.25,0,0,1,0-.08.15.15,0,0,1,0-.07h0a.19.19,0,0,1,0-.07h0l0-.06a.83.83,0,0,1,.07-.13s0,0,0-.05l0,0,0,0,.1-.1h0a.7.7,0,0,1,.16-.1l0,0,.08,0,.08,0h.1a1,1,0,0,1,.24,0Z"/><path class="cls-3" d="M15.52,17v.85a.86.86,0,0,1-1.72,0V17Z"/><path class="cls-3" d="M14.76,10.45l-4.26.84-.17,0h-.17A.88.88,0,0,1,9.69,11a.47.47,0,0,1-.09-.12.83.83,0,0,1-.07-.13v0l0-.13a1,1,0,0,1,0-.16,1,1,0,0,1,0-.17.8.8,0,0,1,.18-.37.94.94,0,0,1,.1-.1.31.31,0,0,1,.11-.09L10,9.65l.14,0h.1a1,1,0,0,1,.24,0Z"/><path class="cls-3" d="M17,11.59a1,1,0,0,1,0,.17.89.89,0,0,1-.68.68H16L11.7,11.6,16,10.75a.76.76,0,0,1,.26,0h.07l.13,0h0l.13.07a.81.81,0,0,1,.29.29.83.83,0,0,1,.07.13v0l0,.13A.88.88,0,0,1,17,11.59Z"/><path class="cls-3" d="M17,9.3a1,1,0,0,1,0,.17.89.89,0,0,1-.2.4.64.64,0,0,1-.2.16l-.13.07h0l-.13,0h-.16l-.17,0-3.58-.7A.89.89,0,0,1,12,9.25l4-.79a.76.76,0,0,1,.26,0h.07l.13,0h0l.13.07a.81.81,0,0,1,.29.29.83.83,0,0,1,.07.13V9l0,.13A.88.88,0,0,1,17,9.3Z"/><path class="cls-3" d="M14.77,12.74l-4.27.84-.17,0h-.17a.86.86,0,0,1-.28-.11.31.31,0,0,1-.11-.09.2.2,0,0,1-.08-.08.31.31,0,0,1-.09-.11,1,1,0,0,1-.11-.28.73.73,0,0,1,0-.34.86.86,0,0,1,.11-.28.31.31,0,0,1,.09-.11.2.2,0,0,1,.08-.08A.31.31,0,0,1,9.88,12a1,1,0,0,1,.28-.11h.1a1,1,0,0,1,.24,0Z"/><path class="cls-3" d="M17,13.87v0a.77.77,0,0,1,0,.15.86.86,0,0,1-.42.58l-.13.06-.13,0H16l-4.27-.84L16,13a.76.76,0,0,1,.26,0h.07a.87.87,0,0,1,.68.68A.77.77,0,0,1,17,13.87Z"/><path class="cls-4" d="M17,9.3a1,1,0,0,1,0,.17.89.89,0,0,1-.2.4.64.64,0,0,1-.2.16l-.13.07h0l-.13,0h-.07l-1.46.3h0l-4.26.84-.17,0h-.17A.88.88,0,0,1,9.69,11a.47.47,0,0,1-.09-.12.83.83,0,0,1-.07-.13v0l0-.13a1,1,0,0,1,0-.16,1,1,0,0,1,0-.17.8.8,0,0,1,.18-.37.94.94,0,0,1,.1-.1.31.31,0,0,1,.11-.09L10,9.65l.14,0h.1L12,9.25l4-.79a.76.76,0,0,1,.26,0h.07l.13,0h0l.13.07a.81.81,0,0,1,.29.29.83.83,0,0,1,.07.13V9l0,.13A.88.88,0,0,1,17,9.3Z"/><path class="cls-4" d="M17,11.59a1,1,0,0,1,0,.17.89.89,0,0,1-.68.68h0l-1.52.3-4.27.84-.17,0h-.17a.86.86,0,0,1-.28-.11.31.31,0,0,1-.11-.09.2.2,0,0,1-.08-.08.31.31,0,0,1-.09-.11,1,1,0,0,1-.11-.28.73.73,0,0,1,0-.34.86.86,0,0,1,.11-.28.31.31,0,0,1,.09-.11.2.2,0,0,1,.08-.08A.31.31,0,0,1,9.88,12a1,1,0,0,1,.28-.11h.1l1.44-.28L16,10.75a.76.76,0,0,1,.26,0h.07l.13,0h0l.13.07a.81.81,0,0,1,.29.29.83.83,0,0,1,.07.13v0l0,.13A.88.88,0,0,1,17,11.59Z"/><path class="cls-4" d="M17,13.87v0a.77.77,0,0,1,0,.15.86.86,0,0,1-.42.58l-.13.06-.13,0h0l-1.51.3-2.12.42v2.31a.86.86,0,1,1-1.71,0V16l-.77-.15h0l-.11,0h0l-.12-.05h0l0,0h0l-.07,0-.1-.09v0l-.08-.1v0l-.06-.12v0a.65.65,0,0,1,0-.13v0a.15.15,0,0,1,0-.07,0,0,0,0,1,0,0V15a0,0,0,0,1,0,0,.15.15,0,0,1,0-.07h0a.19.19,0,0,1,0-.07h0l0-.06a.83.83,0,0,1,.07-.13s0,0,0-.05l0,0h0l0,0v0l0,0,0,0,0,0h0a.7.7,0,0,1,.16-.1l0,0,.08,0,.08,0h.1l1.44-.28L16,13a.76.76,0,0,1,.26,0h.07a.87.87,0,0,1,.68.68A.77.77,0,0,1,17,13.87Z"/><path class="cls-5" d="M16,17.29v1.9a.37.37,0,0,1-.06.21L15,20.55a.34.34,0,0,1-.27.13H11.7a.33.33,0,0,1-.26-.13l-.89-1.15a.38.38,0,0,1-.07-.21v-1.9a.34.34,0,0,1,.34-.34h4.83A.34.34,0,0,1,16,17.29Z"/><path class="cls-6" d="M10.55,19.4l.89,1.15a.33.33,0,0,0,.26.13h3.06a.34.34,0,0,0,.27-.13l.89-1.15a.37.37,0,0,0,.06-.21h-5.5A.38.38,0,0,0,10.55,19.4Z"/><rect class="cls-7" x="11.51" y="20.68" width="3.45" height="0.4" rx="0.2"/><rect class="cls-7" x="11.51" y="21.08" width="3.45" height="0.4" rx="0.2"/><rect class="cls-7" x="11.51" y="21.47" width="3.45" height="0.4" rx="0.2"/><rect class="cls-7" x="11.51" y="21.87" width="3.45" height="0.4" rx="0.2"/><path class="cls-3" d="M13.43,22.69H13a.39.39,0,0,1-.28-.12l-.33-.3h1.63l-.33.3A.4.4,0,0,1,13.43,22.69Z"/><g class="cls-8"><path class="cls-7" d="M11.51,22.07h0a.2.2,0,0,0,.19.2h3.06a.2.2,0,0,0,.2-.2H11.51Z"/></g><g class="cls-8"><path class="cls-7" d="M11.51,21.67h0a.2.2,0,0,0,.19.2h3.06a.2.2,0,0,0,.2-.2H11.51Z"/></g><g class="cls-8"><path class="cls-7" d="M11.51,20.88h0a.2.2,0,0,0,.19.2h3.06a.2.2,0,0,0,.2-.2H11.51Z"/></g><g class="cls-8"><path class="cls-7" d="M11.51,21.28h0a.19.19,0,0,0,.19.19h3.06a.19.19,0,0,0,.2-.19H11.51Z"/></g><g class="cls-8"><path class="cls-7" d="M11.51,21.67h0a.2.2,0,0,0,.19.2h3.06a.2.2,0,0,0,.2-.2H11.51Z"/></g></g></g></g></svg>