<svg xmlns="http://www.w3.org/2000/svg" viewBox="0 0 16.98 26.55"><defs><style>.cls-1{fill:#cb9833;}</style></defs><g id="Layer_2" data-name="Layer 2"><g id="Layer_1-2" data-name="Layer 1"><path class="cls-1" d="M13.86,19.24a.59.59,0,1,1-.59.58A.6.6,0,0,1,13.86,19.24Z"/><path class="cls-1" d="M12.19,13a.59.59,0,1,1-.59.58A.6.6,0,0,1,12.19,13Z"/><path class="cls-1" d="M8.8,23.17a.59.59,0,1,1,0,1.17.64.64,0,0,1-.59-.59A.6.6,0,0,1,8.8,23.17Z"/><path class="cls-1" d="M4.83,13a.59.59,0,1,1-.59.58A.59.59,0,0,1,4.83,13Z"/><path class="cls-1" d="M3.16,19.24a.59.59,0,1,1-.59.58A.56.56,0,0,1,3.16,19.24Z"/><path class="cls-1" d="M14.31,16.25a.56.56,0,0,0-.54-.4H10.16L9,12.41a.53.53,0,0,0-.54-.4.59.59,0,0,0-.55.4L6.81,15.85H3.2a.58.58,0,0,0-.54.4.67.67,0,0,0,.23.63L5.82,19,4.69,22.44a.67.67,0,0,0,.23.63.6.6,0,0,0,.68,0L8.53,21l2.94,2.12a.6.6,0,0,0,.31.09.44.44,0,0,0,.27-.09.51.51,0,0,0,.23-.63L11.15,19l2.93-2.13A.51.51,0,0,0,14.31,16.25Zm-4.15,2a.51.51,0,0,0-.23.63l.72,2.16L8.8,19.73a.6.6,0,0,0-.31-.09.46.46,0,0,0-.32.14L6.32,21.13,7,18.92a.67.67,0,0,0-.23-.63L4.92,16.93h2.3a.58.58,0,0,0,.54-.41l.73-2.16.67,2.16a.58.58,0,0,0,.54.41H12Z"/><path class="cls-1" d="M12.54,10.59A10.17,10.17,0,0,0,11.23,10a8.22,8.22,0,0,0-1.11-.29,8,8,0,0,0-1.63-.16,8.22,8.22,0,0,0-1,.06A4.67,4.67,0,0,0,7,9.71a7.7,7.7,0,0,0-1,.22L5.78,10a8.47,8.47,0,0,0-1.34.58,8.65,8.65,0,0,0-2.17,1.68A8.53,8.53,0,0,0,0,18.06a8.49,8.49,0,1,0,12.54-7.47Zm-4,14.87A7.35,7.35,0,0,1,1.13,18.1a7.24,7.24,0,0,1,1.08-3.83A6.76,6.76,0,0,1,3.5,12.7a7.29,7.29,0,0,1,5-2,7.36,7.36,0,0,1,0,14.72Z"/><path class="cls-1" d="M6.54,10.75a.61.61,0,0,1-.49-.27L.4.86A.68.68,0,0,1,.4.27.52.52,0,0,1,.9,0h4a.57.57,0,0,1,.5.27L9,6.5a.56.56,0,0,1-.95.59l-3.52-6H1.94L7.09,9.89a.58.58,0,0,1-.18.77A3,3,0,0,1,6.54,10.75Z"/><path class="cls-1" d="M10.47,10.75a.72.72,0,0,1-.27-.09A.54.54,0,0,1,10,9.89l5.15-8.76H12.55L7,10.48a.56.56,0,1,1-1-.59L11.69.27a.52.52,0,0,1,.5-.27h4a.57.57,0,0,1,.5.27.68.68,0,0,1,0,.59L11,10.48A.64.64,0,0,1,10.47,10.75Z"/><path class="cls-1" d="M12.19,10.75H4.83a.59.59,0,0,1,0-1.18h7.36a.6.6,0,0,1,.59.59A.68.68,0,0,1,12.19,10.75Z"/></g></g></svg>