<svg xmlns="http://www.w3.org/2000/svg" viewBox="0 0 17.8 17.8"><defs><style>.cls-1{fill:#020b34;}</style></defs><g id="Layer_2" data-name="Layer 2"><g id="Layer_1-2" data-name="Layer 1"><path class="cls-1" d="M8.9,0a8.9,8.9,0,1,0,8.9,8.9A8.89,8.89,0,0,0,8.9,0Zm5.69,5.16h0A2,2,0,0,1,14,6.65,1.93,1.93,0,0,1,11.8,7L10.35,8.47a.41.41,0,0,1,0,.11,1,1,0,0,1-.1.4,2.66,2.66,0,0,1-.31.48c.93.94,2.08,2.09,2.3,2.28s.64.47.88.71l1.09,1.08-.48.48-1.08-1.08c-.25-.25-.38-.51-.71-.89L9.66,9.75l0,0h0l-.06,0h0l-.06,0L9.21,10a.78.78,0,0,1-.52.1l-1.6,1.6A2,2,0,0,1,6.71,14a2,2,0,0,1-1.47.57H5.16l-.28,0-.09,0h0l1.52-1.53L5,11.57,3.42,13.1h0a1.56,1.56,0,0,1-.06-.39v-.07a1.91,1.91,0,0,1,.57-1.45,2,2,0,0,1,2.22-.4L8,9a1.14,1.14,0,0,0-.47-.42,3.52,3.52,0,0,1-1.16-.68C5.94,7.52,4,5.48,4,5.48a.65.65,0,0,1-.2-.66A2.4,2.4,0,0,1,4.24,4,2.2,2.2,0,0,1,5,3.55a.31.31,0,0,1,.13,0,.69.69,0,0,1,.53.22s2,2,2.4,2.37a2.66,2.66,0,0,1,.5.77c.05.11.1.24.18.39a1.07,1.07,0,0,0,.42.47l1.66-1.67a2,2,0,0,1,.39-2.22,1.88,1.88,0,0,1,1.9-.51h0L11.62,4.89,13,6.22l0,0L14.52,4.7v0h0a1.56,1.56,0,0,1,.06.39Z"/></g></g></svg>