<svg xmlns="http://www.w3.org/2000/svg" viewBox="0 0 17.8 17.8"><defs><style>.cls-1{fill:#020b34;}</style></defs><g id="Layer_2" data-name="Layer 2"><g id="Layer_1-2" data-name="Layer 1"><path class="cls-1" d="M8.9,0a8.9,8.9,0,1,0,8.9,8.9A8.9,8.9,0,0,0,8.9,0Zm4.21,10a1.2,1.2,0,0,0,.66,1.45,5.55,5.55,0,0,1-1.25,1.49,1.19,1.19,0,0,0-1.54-.4,1.21,1.21,0,0,0-.56,1.5,5.5,5.5,0,0,1-1.93.17,1.19,1.19,0,0,0-2.26-.71,5.59,5.59,0,0,1-1.5-1.25,1.18,1.18,0,0,0,.4-1.54,1.2,1.2,0,0,0-1.49-.56,5.51,5.51,0,0,1-.18-1.93,1.19,1.19,0,0,0,1.37-.81A1.18,1.18,0,0,0,4.17,6a5.59,5.59,0,0,1,1.25-1.5,1.19,1.19,0,0,0,2.1-1.09,5.57,5.57,0,0,1,1.94-.18,1.19,1.19,0,0,0,2.26.71,6.58,6.58,0,0,1,1.62,1.41c-.17.12-.3.16-.53.29l-1.4.76a3.39,3.39,0,1,0,.9,1.85l2-1.07a6,6,0,0,1,.2,2.05A1.18,1.18,0,0,0,13.11,10ZM12,8.09,9.11,9.64l-1.3.71L7.11,9,6.23,7.38a3.07,3.07,0,0,1,1-1.21L8.42,8.32,11.3,6.75,14.48,5a7.25,7.25,0,0,1,.68,1.33Z"/></g></g></svg>