<svg xmlns="http://www.w3.org/2000/svg" viewBox="0 0 17.8 17.8"><defs><style>.cls-1{fill:#020b34;}</style></defs><g id="Layer_2" data-name="Layer 2"><g id="Layer_1-2" data-name="Layer 1"><path class="cls-1" d="M8.9,0a8.9,8.9,0,1,0,8.9,8.9A8.9,8.9,0,0,0,8.9,0ZM3,7.7l7.48-2.44-.88,5.49-5.12.91ZM6.2,14.47A.74.74,0,0,1,5.94,13a.74.74,0,0,1,.26,1.46Zm3.85-.69a.75.75,0,0,1-.86-.6.74.74,0,1,1,.86.6ZM13.84,3.69,12,4l-1.34,7.51h0a0,0,0,0,1,0,0l0,.08,0,0-.06.05,0,0a.21.21,0,0,1-.11,0l-5.3,1a.33.33,0,0,1-.38-.27A.33.33,0,0,1,5,12.09l5.08-.9,1.34-7.51a0,0,0,0,0,0,0,.25.25,0,0,1,0-.07s0,0,0-.05l0,0s0,0,0,0l.05,0,.07,0h0L13.73,3a.33.33,0,0,1,.11.65Z"/></g></g></svg>